<svg xmlns="http://www.w3.org/2000/svg" xmlns:xlink="http://www.w3.org/1999/xlink" viewBox="0 0 713.831 714.229">
  <defs>
    <linearGradient id="linear-gradient" x1="-102.237" y1="-2.333" x2="-102.237" y2="4.029" gradientUnits="objectBoundingBox">
      <stop offset="0" stop-color="#ffac85"/>
      <stop offset="1" stop-color="#ff8e59"/>
    </linearGradient>
  </defs>
  <g id="Playing" transform="translate(162.3 425.2)">
    <g id="Playing-2" data-name="Playing" transform="translate(-162.3 -425.2)">
      <ellipse id="楕円形_68" data-name="楕円形 68" cx="125.827" cy="24.505" rx="125.827" ry="24.505" transform="translate(196.182 665.218)" fill="#2a94f4" opacity="0.1"/>
      <path id="パス_629" data-name="パス 629" d="M895.117,156.105s-28.48-.6-32.4,53.249-10.147,71.463-43.9,84.709-44.175,56.759-19.28,77.158,128.262,89.146,141.522,7.02,27.668-49.739,49.316-81.4c38.966-56.958-26.451-132.461-50.737-137.3A187.775,187.775,0,0,0,895.117,156.105Z" transform="translate(-607.406 -53.713)" fill="#0b4870"/>
      <g id="グループ_301" data-name="グループ 301" transform="translate(330.228 30.637)">
        <g id="グループ_300" data-name="グループ 300">
          <path id="パス_630" data-name="パス 630" d="M1035.584,259.956l.677-.993.541-.795.744-1.258,1.556-2.451,3.044-4.835,6.021-9.67,12.042-19.339c7.983-12.915,15.965-25.764,23.948-38.943l.744-1.258.812-1.457c.541-.993,1.15-2.053,1.624-2.98.879-1.854,1.826-3.709,2.638-5.5,1.624-3.643,3.112-7.219,4.668-10.8,2.909-7.153,5.682-14.24,8.389-21.392,5.412-14.24,12.921-43.646,12.921-43.646l-11.3-3.245s-15.694,25.366-21.58,39.142c-2.976,6.888-5.953,13.776-9.065,20.465-1.556,3.378-3.112,6.689-4.735,9.868-.812,1.656-1.624,3.113-2.435,4.636-.406.729-.812,1.325-1.15,1.987l-.609.993-.744,1.126c-8.321,12.385-16.98,24.969-25.571,37.42L1013.328,243.8l-.677.993a13.377,13.377,0,0,0,3.721,18.876,14.026,14.026,0,0,0,19.28-3.643C1035.517,260.089,1035.584,259.956,1035.584,259.956Z" transform="translate(-1010.249 -62.562)" fill="#b97a59"/>
          <path id="パス_631" data-name="パス 631" d="M1158.015,81.8s6.292-21.79-1.962-30.2c-8.253-8.345-17.318-1.457-15.559,8.345s5.277,20.2,3.585,24.439c-1.623,4.173,5.277,5.563,5.277,5.563Z" transform="translate(-1052.314 -47.858)" fill="#b97a59"/>
        </g>
      </g>
      <path id="パス_632" data-name="パス 632" d="M1025.492,327.2c.609.265,5.479,44.639,3.721,51.13-1.488,5.5-9,16.624-13.259,22.452-1.15-7.616-2.3-15.167-3.315-22.717L1010,358.127c.271-1.391.609-2.782.947-4.239C1015.682,333.026,1024.883,327,1025.492,327.2Z" transform="translate(-679.941 -111.551)" fill="#f5a171" opacity="0.5"/>
      <path id="パス_633" data-name="パス 633" d="M1006.752,376.463c-1.285,5.3-.812,52.587.88,79.543H936.127c1.082-1.59,12.38-32.055,9.809-39.606-7.1-20.863-21.512-63.184-22.73-67.687-1.624-6.027.338-36.692,1.624-37.95s25.03-10.8,27.06-10.6,23-5.166,23-5.166l8.862,7.749c.88.2,7.78-2.053,12.515,1.258a2.867,2.867,0,0,0,.541,1.126c6.291,8.279,15.627,43.513,16.3,44.639C1014.667,352.62,1019.4,366.926,1006.752,376.463Z" transform="translate(-651.663 -100.68)" fill="#ffbe55"/>
      <path id="パス_634" data-name="パス 634" d="M993.2,278.843l.068.132H954.029a1.106,1.106,0,0,1-.068-.464c12.177-8.676-1.962-50.2-1.962-53.912,0,0,32.945,7.418,41.469,16.226C972.7,264.338,993.2,278.843,993.2,278.843Z" transform="translate(-661.177 -76.906)" fill="#a56950"/>
      <path id="パス_635" data-name="パス 635" d="M942.224,213.493c-1.826-8.014-3.924-15.962-3.924-24.108,0-53.912,62.575-37.023,62.575-14.5,0,13.511,1.962,37.751-6.9,53.647a16.561,16.561,0,0,1-17.927,8.014c-17.453-3.709-31.119-11.127-33.757-22.783Z" transform="translate(-656.745 -52.884)" fill="#b97a59"/>
      <path id="パス_636" data-name="パス 636" d="M906.662,334.971l-.406,1.126-.406.861-.609,1.325-1.15,2.649-2.3,5.232-4.6,10.4-9.2,20.8c-6.156,13.908-12.244,27.618-18.6,41.593l-.609,1.325-.744,1.523c-.541.993-1.015,2.053-1.556,2.98-1.015,1.788-2.029,3.643-3.112,5.3q-3.146,5.067-6.291,9.935c-4.262,6.491-8.591,12.782-12.921,19.074-8.727,12.584-28.886,35.566-28.886,35.566L806,487.5s12.042-27.154,20.159-39.871c3.991-6.358,7.982-12.716,11.839-19.074q2.841-4.769,5.479-9.537c.88-1.59,1.624-3.113,2.435-4.636.338-.729.609-1.391.947-2.053l.474-1.06.541-1.258c5.547-13.842,11.027-28.016,16.439-42.056l15.9-41.526.406-1.126a13.957,13.957,0,0,1,17.859-7.948,13.5,13.5,0,0,1,8.118,17.485C906.729,334.839,906.662,334.905,906.662,334.971Z" transform="translate(-613.945 -107.934)" fill="#b97a59"/>
      <path id="パス_637" data-name="パス 637" d="M805.309,576.742s-14.544,17.617-26.248,15.9-11.23-12.981-2.029-17.22,19.889-7.484,22.459-11.259,7.644.993,7.644.993Z" transform="translate(-602.362 -191.083)" fill="#b97a59"/>
      <path id="パス_638" data-name="パス 638" d="M996.607,520.745c15.221,0,19.686-13.445,19.686-13.445l6.292,24.439c-3.788,3.113-11.027,1.523-11.365,6.358a28.737,28.737,0,0,1-8.659-1.06,261.162,261.162,0,0,0-39.033-6.689s-2.1-6.424-3.856-10.531S952.5,507.3,952.5,507.3,981.454,520.745,996.607,520.745Z" transform="translate(-661.339 -172.373)" fill="#f6e8ff"/>
      <path id="パス_639" data-name="パス 639" d="M1094.1,1030.3a1.9,1.9,0,0,0,.744-3.643c-6.359-2.716-13.327-5.894-16.777-6.292-5.277-.662-20.836-.662-20.836-.662s-1.624,11.325-.677,11.325C1057.234,1031.092,1080.506,1030.628,1094.1,1030.3Z" transform="translate(-694.907 -345.408)" fill="#0b4870"/>
      <path id="パス_640" data-name="パス 640" d="M928.8,1036.4a1.9,1.9,0,0,0,.744-3.643c-6.359-2.716-13.327-5.894-16.777-6.292-5.277-.662-20.836-.662-20.836-.662s-1.624,11.325-.677,11.325C891.935,1037.192,915.206,1036.662,928.8,1036.4Z" transform="translate(-641.431 -347.468)" fill="#0b4870"/>
      <path id="パス_641" data-name="パス 641" d="M1061.043,660.649,997.115,506.862l-63.861-.662c-2.165,4.04-18.536,26.294-20.7,46.825-2.029,19.008,29.495,111.267,36.6,137.825.2-.066-56.352,159.549-56.352,159.549l15.289-.066,69.949-138.62a57.662,57.662,0,0,0,7.036-38.215l-7.712-98.021c18.807,39.208,50.872,100.14,52.428,103.518-15.627,75.834-25.706,167.232-25.706,167.232l15.695.331,43.431-147.1A57.6,57.6,0,0,0,1061.043,660.649Z" transform="translate(-642.026 -172.001)" fill="#0e538c"/>
      <path id="パス_642" data-name="パス 642" d="M943.647,220.28c0,4.437-3.315,8.08-7.374,8.08s-7.374-3.643-7.374-8.08,3.315-8.08,7.374-8.08C940.4,212.2,943.647,215.843,943.647,220.28Z" transform="translate(-653.704 -72.719)" fill="#f5a171"/>
      <path id="パス_643" data-name="パス 643" d="M952.456,167.234s2.571,28.545-16.912,25.3c0,0-20.5-9.272,0-34.639s59.531-5.762,63.116,10.8-1.962,32.254-1.962,32.254,3.653-28.479-6.63-34.241C977.147,159.485,970.18,181.01,952.456,167.234Z" transform="translate(-652.906 -50.271)" fill="#0b4870"/>
      <g id="グループ_302" data-name="グループ 302" transform="translate(269.107 99.043)">
        <path id="パス_644" data-name="パス 644" d="M930.97,233.83c-.609-5.63,3.315-10,8.727-9.736s10.283,5.034,10.891,10.729c.609,5.63-3.315,10-8.727,9.736C936.517,244.294,931.579,239.46,930.97,233.83Z" transform="translate(-923.461 -175.774)" fill="url(#linear-gradient)"/>
        <ellipse id="楕円形_69" data-name="楕円形 69" cx="13.936" cy="15.498" rx="13.936" ry="15.498" transform="translate(1.218 41.697)" fill="#341675"/>
        <path id="パス_645" data-name="パス 645" d="M954.739,224.574c0,10.531-9.2,19.074-18.333,19.074S919.9,235.1,919.9,224.574s7.374-19.074,16.506-19.074C945.607,205.5,954.739,214.044,954.739,224.574Z" transform="translate(-919.9 -169.499)" fill="#a1c9e2"/>
        <ellipse id="楕円形_70" data-name="楕円形 70" cx="15.221" cy="19.074" rx="15.221" ry="19.074" transform="translate(0 36.001)" fill="#f7f7f7"/>
        <path id="パス_646" data-name="パス 646" d="M934,189.329c0-.729,1.015-35.5,33.419-38.149,6.968-.662,26.248,7.55,26.248,7.55s-26.248-10.663-41.131,5.762c-7.509,8.345-9.335,25.234-9.335,25.234Z" transform="translate(-924.461 -151.143)" fill="#f7f7f7"/>
      </g>
      <path id="パス_647" data-name="パス 647" d="M614.951,842.711h0l-.406-74.31h-4.127l.338,65.3a18.3,18.3,0,0,0-12.515-4.636c-9.2,0-16.642,6.093-16.642,13.577s7.441,13.445,16.642,13.445c9.133,0,16.506-5.563,16.642-13.511h.135v.133Z" transform="translate(-541.349 -260.545)" fill="#ffbe55"/>
      <path id="パス_648" data-name="パス 648" d="M1214.036,435.8c-1.827-4.437-6.63-7.285-12.312-7.285a16.465,16.465,0,0,0-8.862,2.583,14.648,14.648,0,0,0-4.6,4.7l.271-56.3h-4.127L1184,454.009h0v3.312l2.1.066s.677-.066,1.759-.066h0c3.653,0,10.621-.265,16.033-2.517C1212.412,451.294,1216.877,442.816,1214.036,435.8ZM1202.2,450.9c-4.6,1.921-10.756,2.252-13.733,2.252.271-9.736,2.368-15.432,6.833-18.346a11.86,11.86,0,0,1,6.359-1.854c3.856,0,7.1,1.788,8.185,4.5C1211.871,442.22,1208.421,448.313,1202.2,450.9Z" transform="translate(-736.232 -129.215)" fill="#0b4870"/>
      <g id="グループ_303" data-name="グループ 303" transform="translate(616.552 398.707)">
        <path id="パス_649" data-name="パス 649" d="M1450.142,607.971c6.7,0,12.177,4.106,12.177,9.206s-5.479,9.206-12.177,9.206-12.177-4.106-12.177-9.206c0-5.034,5.479-9.206,12.177-9.206m0-4.371c-9.2,0-16.642,6.093-16.642,13.577s7.441,13.577,16.642,13.577,16.642-6.093,16.642-13.577-7.441-13.577-16.642-13.577Z" transform="translate(-1433.5 -603.6)" fill="#ffbe55"/>
      </g>
      <path id="パス_650" data-name="パス 650" d="M834.938,77.036h0l-.271-74.244h0V1.6L776.218,8.687l.068,8.875.271,57.091a18.3,18.3,0,0,0-12.515-4.636c-9.2,0-16.641,6.093-16.641,13.577s7.441,13.445,16.641,13.445c9.133,0,16.506-5.5,16.642-13.511h0v.132h0l-.2-66.562,50.06-6.358.271,57.356A18.3,18.3,0,0,0,818.3,63.459c-9.2,0-16.642,6.093-16.642,13.577S809.1,90.481,818.3,90.481c9.133,0,16.506-5.5,16.642-13.511h0Z" transform="translate(-594.987 -1.6)" fill="#ffbe55"/>
      <path id="パス_651" data-name="パス 651" d="M1325.525,166.69c-3.382-1.921-7.577-1.192-9.2,1.523h-.068l-14.612,24.969-20.227-8.213,12.651-21.591a7.918,7.918,0,0,0,3.653,4.371c3.45,1.921,7.577,1.258,9.268-1.59,1.691-2.782.2-6.623-3.247-8.61-3.382-1.921-7.577-1.192-9.2,1.523h-.068l-16.3,27.883h0l-.271.464,23.474,9.736,1.894-3.312,12.583-21.525a7.919,7.919,0,0,0,3.653,4.371c3.45,1.921,7.577,1.258,9.268-1.523S1328.975,168.677,1325.525,166.69Z" transform="translate(-766.61 -53.9)" fill="#0b4870"/>
      <path id="パス_652" data-name="パス 652" d="M647.992,285.859c-3.924.53-6.7,3.643-6.291,6.755h-.068l4.127,28.545-21.107,5.63-3.585-24.638a8.1,8.1,0,0,0,5.683,1.258c3.924-.53,6.765-3.576,6.291-6.822s-3.991-5.365-7.983-4.835c-3.924.53-6.7,3.643-6.291,6.756H618.7l4.668,31.791h0l.068.53,24.692-6.424-.609-3.775-3.585-24.505a8.1,8.1,0,0,0,5.683,1.258c3.924-.53,6.765-3.576,6.291-6.755S651.916,285.329,647.992,285.859Z" transform="translate(-553.351 -97.566)" fill="#0b4870"/>
      <path id="パス_653" data-name="パス 653" d="M1338.737,883.069h0l-.271-74.311h0V807.5l-58.448,7.153.068,8.809.271,57.157a18.3,18.3,0,0,0-12.515-4.636c-9.2,0-16.641,6.093-16.641,13.577s7.441,13.379,16.641,13.379c9.065,0,16.439-5.5,16.642-13.511h0v0l-.2-58.084,50.06-6.689.2,49.342a18.3,18.3,0,0,0-12.515-4.636c-9.2,0-16.641,6.093-16.641,13.577s7.441,13.776,16.641,13.776c9.065,0,16.438-5.828,16.642-13.114h0v-.53Zm-54.457-56.031v-3.974l50.06-6.358v3.643Z" transform="translate(-757.972 -273.749)" fill="#ffbe55"/>
      <path id="パス_654" data-name="パス 654" d="M1539.269,336.5c-5.885,0-10.689,4.04-10.824,8.742h0l.135,37.685-32.472,4.371-.135-32.056a11.8,11.8,0,0,0,8.118,2.98c5.953,0,10.824-3.974,10.824-8.809,0-4.9-4.8-8.742-10.824-8.742-5.886,0-10.689,4.04-10.824,8.742h0l.2,48.083h0v.861l37.951-4.636-.068-5.7-.2-37.089a11.8,11.8,0,0,0,8.118,2.98c5.953,0,10.824-3.908,10.824-8.809C1550.093,340.408,1545.222,336.5,1539.269,336.5Zm-10.689,49.342v2.583l-32.472,4.173v-2.318Z" transform="translate(-836.261 -114.694)" fill="#ffbe55"/>
      <path id="パス_655" data-name="パス 655" d="M568.169,520.8c-5.885,0-10.688,4.04-10.824,8.742h0l.135,37.685L525.009,571.6l-.135-32.056a11.8,11.8,0,0,0,8.118,2.98c5.953,0,10.824-3.974,10.824-8.809,0-4.9-4.8-8.743-10.824-8.743-5.885,0-10.689,4.04-10.824,8.743h0l.2,48.083h0v.861l37.951-4.636-.068-5.7-.2-37.089a11.8,11.8,0,0,0,8.118,2.98c5.953,0,10.824-3.908,10.824-8.809C578.993,524.708,574.19,520.8,568.169,520.8Zm-10.621,49.342v2.583L525.076,576.9v-2.318Z" transform="translate(-522.1 -176.932)" fill="#ffbe55"/>
    </g>
  </g>
</svg>
