<svg xmlns="http://www.w3.org/2000/svg" xmlns:xlink="http://www.w3.org/1999/xlink" viewBox="0 0 341.302 258.689">
  <defs>
    <clipPath id="clip-path">
      <path id="パス_172" data-name="パス 172" d="M844.526,625.3,794.5,711.96H894.552Z" transform="translate(-778.182 -583.804)" fill="#0e538c"/>
    </clipPath>
  </defs>
  <g id="Christmas_Recolored" transform="translate(170.651 129.344)">
    <g id="Christmas_Recolored-2" data-name="Christmas_Recolored" transform="translate(-170.651 -129.345)">
      <g id="BG">
        <path id="パス_170" data-name="パス 170" d="M184.819,517.482c-9.169-26.167,2.39-55.074,15.432-71.825,19.821-25.446,36.716-16.9,63.6-44.03C290.434,374.8,281.9,357.9,307.33,338.372c17.658-13.557,48.666-26.064,70.053-14.629,21.449,11.456,10.013,34.573,35.027,67.993,15.247,20.377,22.726,16.339,71.083,58.1,27.176,23.468,31.709,30.082,34.821,38.117,10.034,25.961,3.091,61.482-18.255,76.276-9.622,6.676-21.7,6.861-45.411,6.14-49.449-1.5-100.774-2.328-123.623-2.266-48.069.1-48.275,4.265-68.2,0C246.383,564.582,197.655,554.156,184.819,517.482Z" transform="translate(-181.528 -319.265)" fill="#f2f2f2"/>
        <g id="グループ_135" data-name="グループ 135" transform="translate(55.089 154.351)">
          <rect id="長方形_18" data-name="長方形 18" width="94.469" height="94.469" transform="translate(0 0)" fill="#d3d3d3"/>
          <rect id="長方形_19" data-name="長方形 19" width="75.678" height="75.678" transform="translate(9.416 18.791)" fill="#f7f7f7"/>
        </g>
        <ellipse id="楕円形_6" data-name="楕円形 6" cx="144.371" cy="8.427" rx="144.371" ry="8.427" transform="translate(37.741 241.835)" fill="#0e538c"/>
      </g>
      <g id="Tree" transform="translate(109.978 21.559)">
        <path id="パス_171" data-name="パス 171" d="M916.221,520.9,884.8,575.315h62.842Z" transform="translate(-849.876 -500.914)" fill="#0e538c"/>
        <rect id="長方形_20" data-name="長方形 20" width="11.806" height="49.058" transform="translate(60.452 175.792)" fill="#0b4870"/>
        <g id="マスクグループ_1" data-name="マスクグループ 1" clip-path="url(#clip-path)">
          <g id="Dessert" transform="translate(66.344 84.826)">
            <g id="Dessert-2" data-name="Dessert" transform="translate(-38.588 -43.33)">
              <g id="Background">
                <path id="パス_373" data-name="パス 373" d="M539.012,85.639s35.214,1.838,34.364-22.814-27.107-22.2-17.653-39.35S539.91-7.454,527.739,4.489,526.42,26.624,525.357,29.8s-14.491-1.269-21.919,8.089c-4.385,5.524-3.993,15.872,4.667,22.97S495.817,87.59,539.012,85.639Z" transform="translate(-500.693 0.003)" fill="#2a94f4" opacity="0.1"/>
              </g>
              <g id="Characters" transform="translate(6.267 31.838)">
                <g id="グループ_213" data-name="グループ 213" transform="translate(31.32)">
                  <path id="パス_374" data-name="パス 374" d="M1068.774,410.442a39.725,39.725,0,0,1-5.7-4.028c-1.1-1.151-1.643-5.9-1.726-6.257a1.908,1.908,0,0,1-.695-1.744c.081-.375.011-1.544.074-1.336-.076-.532,1.34-.431,1.481.982a15.278,15.278,0,0,1,.151,1.653c.406,1.324,1.508,4.441,1.539,4.888,2.008,1.166,5.427,3.79,5.427,3.79Z" transform="translate(-1053.284 -396.78)" fill="#fcd2b1"/>
                  <g id="グループ_212" data-name="グループ 212" transform="translate(0 6.224)">
                    <g id="グループ_211" data-name="グループ 211">
                      <path id="パス_375" data-name="パス 375" d="M1414.347,666.036c.591-.131.79-1.126.043-1.033-.04,0-.108.007-.272.03-.14.018-.294.022-.434.044s-.745.041-.888-.228c-.219-.412.623-.351.707-.71.026-.112-.6-.047-.932.042a3.8,3.8,0,0,0-.693.222,4.934,4.934,0,0,1-.561.291,2.986,2.986,0,0,1-.48-.022l-.116,1.134a3.692,3.692,0,0,1,.87.122,2.663,2.663,0,0,0,1.375.379,5.081,5.081,0,0,0,.933-.129S1414.3,666.046,1414.347,666.036Z" transform="translate(-1375.286 -648.855)" fill="#fcd2b1"/>
                      <g id="グループ_205" data-name="グループ 205" transform="translate(20.544 39.876)">
                        <path id="パス_376" data-name="パス 376" d="M1234.99,972.694a12.913,12.913,0,0,0,1.005,1.261c.316.292,1.338-.617,1.3-.888a12.05,12.05,0,0,0-1.322-1.768" transform="translate(-1234.2 -971.3)" fill="#fcd2b1"/>
                        <path id="パス_377" data-name="パス 377" d="M1228.769,991.094c.3.327.827.989.827.989l-.855,1.1-.282-.08a2.339,2.339,0,0,1-.347.84,5.106,5.106,0,0,1-.924.885,2.966,2.966,0,0,1-1.891.713c-.563-.453.66-1.3.881-1.505a1.949,1.949,0,0,0,.546-1.919c-.109-.335-.213-.35-.04-.429a.45.45,0,0,1,.356-.014.8.8,0,0,0,.907-.233.947.947,0,0,0,.214-.551A.573.573,0,0,1,1228.769,991.094Z" transform="translate(-1225.149 -989.295)" fill="#0b4870"/>
                      </g>
                      <g id="グループ_206" data-name="グループ 206" transform="translate(0 42.051)">
                        <path id="パス_378" data-name="パス 378" d="M1017.023,998.533a12.921,12.921,0,0,0-.337,1.578c-.026.43,1.326.643,1.513.443a12.081,12.081,0,0,0,.527-2.143" transform="translate(-1012.869 -998.41)" fill="#fcd2b1"/>
                        <path id="パス_379" data-name="パス 379" d="M974.757,1015.858c-.059.444-.24,1.266-.24,1.266l-1.39.035-.117-.269a2.332,2.332,0,0,1-.87.264,5.143,5.143,0,0,1-1.271-.152c-1.073-.318-1.748-.836-1.75-1.009-.007-.723,1.423-.315,1.723-.274a1.949,1.949,0,0,0,1.83-.8c.19-.3.136-.387.306-.3a.452.452,0,0,1,.237.267.8.8,0,0,0,.755.553.951.951,0,0,0,.562-.184A.576.576,0,0,1,974.757,1015.858Z" transform="translate(-969.12 -1013.291)" fill="#0b4870"/>
                      </g>
                      <path id="パス_380" data-name="パス 380" d="M1020.239,694.85s-3.921,9.991-4.406,12.14-2.323,12.966-2.323,12.966a6.307,6.307,0,0,0,2.353.27c.432-1.779,4.87-15.506,7.766-19.194S1020.239,694.85,1020.239,694.85Z" transform="translate(-1009.948 -677.157)" fill="#ffbe55"/>
                      <path id="パス_381" data-name="パス 381" d="M1130.274,713.617a15.246,15.246,0,0,0,2.1,9.781,78.712,78.712,0,0,0,6.056,8.619,5.752,5.752,0,0,0,1.774-1.325c-.91-1.245-4.986-8.3-4.984-11.055a89.283,89.283,0,0,1,1.062-9.294l-4.538-1.083Z" transform="translate(-1117.23 -690.411)" fill="#ffbe55"/>
                      <path id="パス_382" data-name="パス 382" d="M1174.5,564.8s-5.168.245-7.821-.5-7.194-3.985-7.194-3.985l-5.353-4.1c-1.372-1.718,2.615-2.42,3.46-1.642l0,.006c.062.05.107.092.141.118.528.447.106,1.311.106,1.311l.91.342s.98-.5,1.6.039a2.227,2.227,0,0,1,.2.2c.839.907,2.881,4.142,7.034,5.789a51.774,51.774,0,0,0,7.166,1.3C1174.573,564.469,1174.5,564.8,1174.5,564.8Z" transform="translate(-1139.028 -547.851)" fill="#fcd2b1"/>
                      <path id="パス_383" data-name="パス 383" d="M1199.221,554.407a2.147,2.147,0,0,1-2.222.66,1.734,1.734,0,0,1-.73-2.674c.062.05.107.092.14.118.528.447.916-.631.916-.631l1.888,1.042s-.807.737-.193,1.281A1.933,1.933,0,0,1,1199.221,554.407Z" transform="translate(-1177.703 -545.659)" fill="#fcd2b1"/>
                      <path id="パス_384" data-name="パス 384" d="M1098.884,531.5a53.16,53.16,0,0,0-2.321,6.494,9.351,9.351,0,0,1-9.087-2.408,7.016,7.016,0,0,1-.875-1s1.257-2.272,2-3.961,1.894-3.892,2.724-5.386c.045-.238-1.493-.849-2.261-2.515a12.175,12.175,0,0,0,2.723-2.127l3.951,3.023s-.961,1.572.274,2.406,2.043.105,2.677-.392a32.067,32.067,0,0,0,4.78,4.188l-2.089,3.5A13,13,0,0,1,1098.884,531.5Z" transform="translate(-1077.173 -516.88)" fill="#2a94f4"/>
                      <g id="グループ_210" data-name="グループ 210" transform="translate(18.93)">
                        <g id="グループ_207" data-name="グループ 207" transform="translate(0.359 1.364)">
                          <path id="パス_385" data-name="パス 385" d="M1211.084,491.354a.831.831,0,0,0-.75.259,7.362,7.362,0,0,0-.761,1.016,1.133,1.133,0,0,0-.025.7,1.048,1.048,0,0,0,.37.707.784.784,0,0,0,.571.086.983.983,0,0,0,.39-.158,1.568,1.568,0,0,0,.326-.352l1.016-1.352a.407.407,0,0,0,.117-.312" transform="translate(-1209.505 -491.342)" fill="#0b4870"/>
                        </g>
                        <g id="グループ_208" data-name="グループ 208" transform="translate(0 0.745)">
                          <path id="パス_386" data-name="パス 386" d="M1209.5,489.45a8.166,8.166,0,0,1-.856.741,1.26,1.26,0,0,1-1.43.149,8.257,8.257,0,0,1-1.68-1.015,1.168,1.168,0,0,1-.33-1.582c.184-.41.36-.823.553-1.23a20.365,20.365,0,0,1,1.377-2.508c.122-.185.265-.458.531-.344a14.837,14.837,0,0,1,2.4,1.3,3.1,3.1,0,0,1,1.3,1.388,3.453,3.453,0,0,1-.051,1.917c-.022.1-.07.226-.173.232" transform="translate(-1205.033 -483.634)" fill="#ffe3ca"/>
                        </g>
                        <g id="グループ_209" data-name="グループ 209" transform="translate(1.319)">
                          <path id="パス_387" data-name="パス 387" d="M1224.536,479.553c.16-.156.453.01.5.228a.947.947,0,0,1-.183.628,1.482,1.482,0,0,1-.652.527c-.249.122-.5.121-.571-.148a.723.723,0,0,0,.1.948c.229.165,2.849-.3,3.38-1.009a3.633,3.633,0,0,0,.659-2.086,9.518,9.518,0,0,0-.475-2.332,3.648,3.648,0,0,0-.784-.98,5.214,5.214,0,0,0-2.4-.962c-.408-.071-2.444.055-2.624.706s1.366,2.186,1.757,2.434.785,1.534,1.179,1.681c0,0-.371.525-.217.55S1224.536,479.553,1224.536,479.553Z" transform="translate(-1221.469 -474.349)" fill="#0b4870"/>
                        </g>
                      </g>
                    </g>
                  </g>
                </g>
                <g id="グループ_216" data-name="グループ 216" transform="translate(0 5.13)">
                  <g id="グループ_215" data-name="グループ 215">
                    <path id="パス_388" data-name="パス 388" d="M708.658,464.845a5.549,5.549,0,0,1,.429-2.958,3.768,3.768,0,0,1,4.331-.817,4.156,4.156,0,0,1,1.739,4.332c1.844.56,2.256,2.672.945,3.193l1.078,2.4a3.066,3.066,0,0,1-1.665,4l-2.869,1.328s-5.27.748-6.274-1.7a3.808,3.808,0,0,1,1.059-4.2s-1.639-1.87-.817-3.661S708.658,464.845,708.658,464.845Z" transform="translate(-695.882 -460.711)" fill="#0b4870"/>
                    <path id="パス_389" data-name="パス 389" d="M846.851,473.237s4.836-.912,6.1-1.2c1.009-.128,1.643-5.9,1.726-6.257a1.908,1.908,0,0,0,.695-1.744c-.081-.375-.011-1.544-.074-1.336.076-.532-1.34-.431-1.481.982a15.26,15.26,0,0,0-.151,1.653c-.406,1.324-1.508,4.441-1.539,4.888-2.111.339-5.827.965-5.827.965Z" transform="translate(-824.835 -462.265)" fill="#fcd2b1"/>
                    <path id="パス_390" data-name="パス 390" d="M592.8,580.054s-3.728,3.048-4.807,3.713c-.781.6-5.658-3.068-5.995-3.262a1.727,1.727,0,0,1-1.624-.627c-.237-.315-1.705-1.537-1.5-1.436-.465-.316,1.078-.755,2.275.126,1.181.869,1.008.711,1.39,1.041,1.3.638,4.477,2.041,4.847,2.329a34.133,34.133,0,0,0,4.068-3.867Z" transform="translate(-578.791 -568.634)" fill="#fcd2b1"/>
                    <path id="パス_391" data-name="パス 391" d="M824.33,1004.511a7.624,7.624,0,0,1,.2,1.6c-.1.492,0,.637,0,.637l2.024-.159s-.895-.405-.832-2.33S824.33,1004.511,824.33,1004.511Z" transform="translate(-804.628 -959.912)" fill="#fcd2b1"/>
                    <path id="パス_392" data-name="パス 392" d="M821.9,1038.271a3.416,3.416,0,0,0,1.749.074,8.787,8.787,0,0,0,2.672.716c.93.108.765.814-.824.717a21.389,21.389,0,0,0-3.051,0c-.353.033-.918.076-.941-.152S821.618,1038.2,821.9,1038.271Z" transform="translate(-802.032 -991.924)" fill="#0b4870"/>
                    <path id="パス_393" data-name="パス 393" d="M788.37,692.218s1.3,11.709,1.379,13.234a18.844,18.844,0,0,1,0,2.983c-.077.928.589,8.746.589,8.746s-3.031.679-3.8.075c0,0,.126-8.525-.26-9.983s-1.9-8.847-1.9-8.847l1.74-7.556Z" transform="translate(-767.883 -672.402)" fill="#0e538c"/>
                    <path id="パス_394" data-name="パス 394" d="M742.467,720.042s-.236,2.484-.731,2.946c-.31.746-.31.746.175,1.044.738.453,2.229,1.324,2.6.956,1.388-1.379,1.44-1.864,1.768-3.647.11-.408,2.045-12.209,2.045-12.209s-6.157-.857-6.18.828S742.776,718.078,742.467,720.042Z" transform="translate(-728.465 -688.998)" fill="#0e538c"/>
                    <g id="グループ_214" data-name="グループ 214" transform="translate(3.559 41.543)">
                      <path id="パス_395" data-name="パス 395" d="M638.077,978.468a8.63,8.63,0,0,1-1.259,1.115c-.483.227-.548.387-.548.387l1.365,1.387s-.193-.9,1.5-2.024S638.077,978.468,638.077,978.468Z" transform="translate(-635.217 -978.442)" fill="#fcd2b1"/>
                      <path id="パス_396" data-name="パス 396" d="M624.6,992.85a2.908,2.908,0,0,0,1,1.327,7.261,7.261,0,0,0,1,2.393c.47.748-.238,1.055-1.118-.169a18.565,18.565,0,0,0-1.853-2.235c-.242-.239-.623-.627-.441-.782S624.493,992.594,624.6,992.85Z" transform="translate(-623.145 -991.639)" fill="#0b4870"/>
                    </g>
                    <path id="パス_397" data-name="パス 397" d="M649.3,877c-2.686,3.352-7.231,5.874-8.515,7.848-.229.621,2.748,2.209,2.748,2.209s6.194-5.609,7.462-6.842a12.219,12.219,0,0,0,1.367-1.37C651.158,878.447,650.052,876.059,649.3,877Z" transform="translate(-635.799 -843.395)" fill="#0e538c"/>
                    <path id="パス_398" data-name="パス 398" d="M747.932,555.093c-.181.424,1.2,6.3,1.434,7.656l-.085-.016a15.16,15.16,0,0,0-7.247.664l-.272-8.3-.011-.308s0-.314.028-.794v-.006a9.322,9.322,0,0,1,.907-3.726,1.818,1.818,0,0,1,1.36-1.009c1.847-.183,1.836.575,3.553,1l2.782.69a16.235,16.235,0,0,0,.631,2.784l-2.564.017S748.113,554.664,747.932,555.093Z" transform="translate(-728.674 -542.119)" fill="#ffbe55"/>
                    <path id="パス_399" data-name="パス 399" d="M772.526,478.64s2.386,3.156,1.5,4.4a2.5,2.5,0,0,1-1.829.956v1.338a.641.641,0,0,1-.367.131,4.78,4.78,0,0,1-1.487-.629v-5.27Z" transform="translate(-754.97 -477.201)" fill="#ffe3ca"/>
                    <path id="パス_400" data-name="パス 400" d="M710.74,560.549s2.383-3.1,3.861-2.991,1.39,2.1,0,3.49-1.854,1.923-1.854,1.923A3.78,3.78,0,0,1,710.74,560.549Z" transform="translate(-700.152 -549.784)" fill="#ffbe55"/>
                    <path id="パス_401" data-name="パス 401" d="M734.523,476.41a6.259,6.259,0,0,1-1.5,3.04c-1.09.92.213,2.228-.694,3.655a1.312,1.312,0,0,1-1.23.468,1.688,1.688,0,0,0-1.541.756.916.916,0,0,0-.072.15c-1.777-.646.759-7.2.759-7.2Z" transform="translate(-716.818 -475.15)" fill="#0b4870"/>
                  </g>
                </g>
              </g>
              <g id="Poopsicle" transform="translate(1.825 8.869)">
                <ellipse id="楕円形_53" data-name="楕円形 53" cx="33.378" cy="2.091" rx="33.378" ry="2.091" transform="translate(0 73.609)" fill="#2a94f4" opacity="0.1"/>
                <g id="グループ_223" data-name="グループ 223" transform="translate(23.283)">
                  <rect id="長方形_63" data-name="長方形 63" width="4.246" height="18.064" transform="translate(6.326 4.855) rotate(-18.754)" fill="#0b4870"/>
                  <g id="グループ_219" data-name="グループ 219" transform="translate(9.104)">
                    <g id="グループ_217" data-name="グループ 217" transform="translate(4.351 7.903)">
                      <path id="パス_402" data-name="パス 402" d="M989.031,228.4h0a1.744,1.744,0,0,0,1.09-2.212L984.7,210.2a1.744,1.744,0,0,0-2.212-1.09h0a1.744,1.744,0,0,0-1.091,2.212l5.427,15.982A1.745,1.745,0,0,0,989.031,228.4Z" transform="translate(-981.299 -209.019)" fill="#ffc883"/>
                      <path id="パス_403" data-name="パス 403" d="M989.031,228.4h0a1.744,1.744,0,0,0,1.09-2.212L984.7,210.2a1.744,1.744,0,0,0-2.212-1.09h0a1.744,1.744,0,0,0-1.091,2.212l5.427,15.982A1.745,1.745,0,0,0,989.031,228.4Z" transform="translate(-981.299 -209.019)" fill="#ffbe55"/>
                    </g>
                    <g id="グループ_218" data-name="グループ 218">
                      <path id="パス_404" data-name="パス 404" d="M939.759,130.4l-5.6,1.9a.522.522,0,0,1-.662-.327l-6.4-18.853a.522.522,0,0,1,.327-.662l5.6-1.9a.522.522,0,0,1,.662.327l6.4,18.853A.522.522,0,0,1,939.759,130.4Z" transform="translate(-927.071 -110.531)" fill="#0e538c"/>
                    </g>
                  </g>
                  <g id="グループ_222" data-name="グループ 222" transform="translate(0 3.091)">
                    <g id="グループ_220" data-name="グループ 220" transform="translate(4.351 7.904)">
                      <path id="パス_405" data-name="パス 405" d="M875.572,266.927h0a1.744,1.744,0,0,0,1.09-2.212l-5.427-15.982a1.744,1.744,0,0,0-2.212-1.09h0a1.744,1.744,0,0,0-1.09,2.212l5.427,15.982A1.745,1.745,0,0,0,875.572,266.927Z" transform="translate(-867.839 -247.549)" fill="#ffc883"/>
                      <path id="パス_406" data-name="パス 406" d="M875.572,266.927h0a1.744,1.744,0,0,0,1.09-2.212l-5.427-15.982a1.744,1.744,0,0,0-2.212-1.09h0a1.744,1.744,0,0,0-1.09,2.212l5.427,15.982A1.745,1.745,0,0,0,875.572,266.927Z" transform="translate(-867.839 -247.549)" fill="#ffbe55"/>
                    </g>
                    <g id="グループ_221" data-name="グループ 221">
                      <path id="パス_407" data-name="パス 407" d="M826.3,168.921l-5.6,1.9a.522.522,0,0,1-.662-.327l-6.4-18.853a.522.522,0,0,1,.327-.662l5.6-1.9a.522.522,0,0,1,.662.327l6.4,18.853A.521.521,0,0,1,826.3,168.921Z" transform="translate(-813.611 -149.051)" fill="#0e538c"/>
                    </g>
                  </g>
                </g>
              </g>
            </g>
          </g>
        </g>
        <path id="パス_173" data-name="パス 173" d="M781.644,785.2,715.3,900.108H847.989Z" transform="translate(-715.3 -710.758)" fill="#0e538c"/>
        <g id="グループ_139" data-name="グループ 139" transform="translate(24.601 44.937)">
          <g id="グループ_136" data-name="グループ 136" transform="translate(0 102.03)">
            <path id="パス_174" data-name="パス 174" d="M926.367,1165.448c-19.821,0-41.743-6.614-57.505-12.568a292.967,292.967,0,0,1-34.161-15.474l.124-.206a290.17,290.17,0,0,0,34.12,15.453c17.967,6.8,43.907,14.423,65.6,12.136l.021.247C931.888,1165.3,929.148,1165.448,926.367,1165.448Z" transform="translate(-834.7 -1137.2)" fill="#f7f7f7"/>
          </g>
          <g id="グループ_137" data-name="グループ 137" transform="translate(27.444)">
            <path id="パス_175" data-name="パス 175" d="M1009.355,663.82c-17.719-2.019-41.228-21.449-41.455-21.634l.144-.185c.227.185,23.674,19.574,41.331,21.593Z" transform="translate(-967.9 -642)" fill="#f7f7f7"/>
          </g>
          <g id="グループ_138" data-name="グループ 138" transform="translate(13.166 46.524)">
            <path id="パス_176" data-name="パス 176" d="M968.282,896.666c-15.741,0-32.843-7.067-44.875-13.31a189.739,189.739,0,0,1-24.807-15.37l.144-.185a191.574,191.574,0,0,0,24.786,15.35c13.166,6.82,32.369,14.629,49.2,13.083l.021.247C971.29,896.6,969.786,896.666,968.282,896.666Z" transform="translate(-898.6 -867.8)" fill="#f7f7f7"/>
          </g>
        </g>
        <path id="パス_177" data-name="パス 177" d="M975.688,423.9l4.945,9.993,11.044,1.607-7.994,7.809,1.875,11-9.869-5.213-9.89,5.213,1.9-11L959.7,435.5l11.044-1.607Z" transform="translate(-909.344 -423.9)" fill="#ffbe55"/>
        <circle id="楕円形_7" data-name="楕円形 7" cx="3.379" cy="3.379" r="3.379" transform="translate(94.057 163.142)" fill="#ffbe55"/>
        <circle id="楕円形_8" data-name="楕円形 8" cx="3.379" cy="3.379" r="3.379" transform="translate(43.68 157.372)" fill="#ffbe55"/>
        <circle id="楕円形_9" data-name="楕円形 9" cx="3.379" cy="3.379" r="3.379" transform="translate(67.54 36.86)" fill="#f7f7f7"/>
        <circle id="楕円形_10" data-name="楕円形 10" cx="3.379" cy="3.379" r="3.379" transform="translate(21.037 175.689)" fill="#f7f7f7"/>
        <circle id="楕円形_11" data-name="楕円形 11" cx="3.379" cy="3.379" r="3.379" transform="translate(67.54 84.826)" fill="#ffbe55"/>
        <circle id="楕円形_12" data-name="楕円形 12" cx="3.379" cy="3.379" r="3.379" transform="translate(85.135 116.886)" fill="#ffbe55"/>
        <circle id="楕円形_13" data-name="楕円形 13" cx="3.379" cy="3.379" r="3.379" transform="translate(51.881 59.751)" fill="#ffbe55"/>
        <circle id="楕円形_14" data-name="楕円形 14" cx="3.379" cy="3.379" r="3.379" transform="translate(40.322 110.849)" fill="#f7f7f7"/>
        <rect id="長方形_21" data-name="長方形 21" width="33.976" height="32.534" transform="translate(26.579 196.664)" fill="#ffbe55"/>
        <rect id="長方形_22" data-name="長方形 22" width="20.48" height="32.534" transform="translate(26.579 196.664)" fill="#fff" opacity="0.35"/>
        <rect id="長方形_23" data-name="長方形 23" width="5.542" height="32.534" transform="translate(33.09 196.664)" fill="#0e538c"/>
        <rect id="長方形_24" data-name="長方形 24" width="4.1" height="32.534" transform="translate(53.096 196.664)" fill="#0e538c"/>
        <rect id="長方形_25" data-name="長方形 25" width="20.975" height="22.891" transform="translate(68.755 204.37)" fill="#f7f7f7"/>
        <rect id="長方形_26" data-name="長方形 26" width="11.559" height="22.891" transform="translate(68.755 204.37)" fill="#0e538c" opacity="0.35"/>
      </g>
      <g id="Male" transform="translate(208.073 162.407)">
        <path id="パス_178" data-name="パス 178" d="M1316.48,1400.537l-6.3-6.037-6.3,4.656s-25.8,9.333-21.407,13.454,30.452,2.74,30.452,2.74l5.089-.412c.824-3.235,2.6-6.1,4.018-9.086Z" transform="translate(-1263.302 -1335.367)" fill="#0e538c"/>
        <path id="パス_179" data-name="パス 179" d="M1466.525,1455.1l-5.707-5.5c-1.422,2.988-3.194,5.852-4.018,9.086l3.482-.289A32.828,32.828,0,0,0,1466.525,1455.1Z" transform="translate(-1402.117 -1379.114)" fill="#ffe3ca"/>
        <path id="パス_180" data-name="パス 180" d="M1469.366,1479.473l-3.317-3.173a34.03,34.03,0,0,1-6.222,3.317l1.586-.124a26.629,26.629,0,0,0-5.213,9.066Z" transform="translate(-1401.641 -1400.313)" fill="#0b4870"/>
        <path id="パス_181" data-name="パス 181" d="M1404.444,1180.7a5.448,5.448,0,0,1-1.648,1.092,7.694,7.694,0,0,1-2.6,1.319l.371,2.308A8.853,8.853,0,0,0,1404.444,1180.7Z" transform="translate(-1357.179 -1165.618)" fill="#fcd2b1"/>
        <path id="パス_182" data-name="パス 182" d="M1391.477,1140.235l-1.092-13.454-12.9-1.38s-3.3,14.546,4.121,13.722l.021.083a8.546,8.546,0,0,0,2.6-1.319,5.859,5.859,0,0,0,1.648-1.092,8.851,8.851,0,0,1-3.874,4.718l.453,2.823Z" transform="translate(-1338.566 -1121.712)" fill="#ffe3ca"/>
        <path id="パス_183" data-name="パス 183" d="M1345.567,1349.334s5.213,26.064-12.342,14.814a296.717,296.717,0,0,0-33.626-18.523l3.029-10.426s16.339,7.829,23.179,5.357C1332.669,1338.085,1345.3,1347.15,1345.567,1349.334Z" transform="translate(-1277.306 -1288.285)" fill="#0b4870"/>
        <path id="パス_184" data-name="パス 184" d="M1379.906,1117.225l1.092-.268s0-3.832,1.648-2.74.556,2.74.556,3.832l3.029,4.2s3.029-9.684-.556-11.888c0,0-2.2-3.564-8.509-2.74s-9.334,3.564-4.945,5.481S1379.082,1111.188,1379.906,1117.225Z" transform="translate(-1333.32 -1107.5)" fill="#0e538c"/>
        <g id="グループ_140" data-name="グループ 140" transform="translate(0 6.186)">
          <path id="パス_185" data-name="パス 185" d="M1242.538,1190.427s-9.333,11.6-17.843,10.734c-8.571-.886-15.844-18.708-15.638-18.378l-4.656.824s9.292,23.88,19.759,23.88c13.413,0,19.78-5.007,21.407-5.646Z" transform="translate(-1201.721 -1173.454)" fill="#ffe3ca"/>
          <path id="パス_186" data-name="パス 186" d="M1195.479,1150.274c.206-.165-2.349-3.771-2.6-4.141-1.03-1.566-1.937-4.245-1.236-6.181.268-.783.927-1.2,1.3-1.916.639-1.216,2.761,0,3.4.968,0,0,0-1.463.433-1.463s1.277,1.71,1.483,3.667.639,6.593.639,6.593Z" transform="translate(-1191.4 -1137.525)" fill="#ffe3ca"/>
        </g>
        <path id="パス_187" data-name="パス 187" d="M1399.006,1200.36c-.906.309-1.628,7.788-1.545,8.839.247,3.338-.453,6.964.556,10.158a54.408,54.408,0,0,1,2.472,12.342s22.788,12.9,22.788,8.241a75.242,75.242,0,0,0-1.916-18.791c-1.751-6.676-5.4-11.991-9.21-17.637-.288-.412-3.874-6.243-4.224-6.119C1407.907,1197.393,1399.006,1200.36,1399.006,1200.36Z" transform="translate(-1354.997 -1178.87)" fill="#ffbe55"/>
        <path id="パス_188" data-name="パス 188" d="M1370.17,1214.843l3.42,11.105s16.174-7.232,11.518-12.342C1377.587,1205.324,1369.881,1214.781,1370.17,1214.843Z" transform="translate(-1333.33 -1189.047)" fill="#ffbe55"/>
        <path id="パス_189" data-name="パス 189" d="M1278.241,1331.923s-6.593-5.769-10.426,4.945c-2.864,7.994,15,21.263,24.23,27.486,2.081-.824,4.2-1.669,6.284-2.555Z" transform="translate(-1251.827 -1284.451)" fill="#0b4870"/>
        <path id="パス_190" data-name="パス 190" d="M1396.675,1488.445l-3.791-5.646c-2.081.886-4.182,1.731-6.284,2.555,2.04,1.36,3.647,2.39,4.533,2.946C1392.966,1488.322,1394.841,1488.466,1396.675,1488.445Z" transform="translate(-1346.381 -1405.473)" fill="#ffe3ca"/>
        <path id="パス_191" data-name="パス 191" d="M1369.14,1509.5c.474.289.742.453.742.453L1358.9,1514.9l18.379-1.381-2.6-3.873C1372.849,1509.665,1370.974,1509.521,1369.14,1509.5Z" transform="translate(-1324.388 -1426.672)" fill="#0b4870"/>
      </g>
      <g id="Female" transform="translate(78.825 115.502)">
        <path id="パス_192" data-name="パス 192" d="M657.191,1162.623c-.721-11.291-15.906-44.772-15.906-44.772L626.1,1113.4s21.325,47.78,22.046,51.7c.391,2.081-.762,11.7-1.916,20.254h7.747C655.749,1178.179,657.6,1168.825,657.191,1162.623Z" transform="translate(-613.325 -1065.279)" fill="#0b4870"/>
        <path id="パス_193" data-name="パス 193" d="M730.922,1517.567c-3.132-4.574-10.116-6.078-10.116-6.078a1.534,1.534,0,0,0,.041-.165,47.618,47.618,0,0,1-6.408-.123c-.371,2.555-.639,4.2-.639,4.2Z" transform="translate(-682.956 -1381.117)" fill="#0b4870"/>
        <path id="パス_194" data-name="パス 194" d="M723.308,1472.737c.247-.824,1.484-4.9,2.761-10.137h-7.747c-.515,3.812-1.03,7.4-1.422,10.013A47.638,47.638,0,0,0,723.308,1472.737Z" transform="translate(-685.417 -1342.531)" fill="#dba17b"/>
        <path id="パス_195" data-name="パス 195" d="M581.469,1508.154s-6.861-6.387-8.324-7.356c-.1-.062-.144-.227-.144-.474a56.642,56.642,0,0,1-6.923-.824c-1.174,4.368-1.978,7.191-1.978,7.191Z" transform="translate(-564.1 -1371.828)" fill="#0b4870"/>
        <path id="パス_196" data-name="パス 196" d="M582.66,1467.063a23.616,23.616,0,0,1-6.634-1.36c-.124-.041-.268-.062-.391-.1-.659,2.6-1.3,4.965-1.834,7.005a56.619,56.619,0,0,0,6.923.824C580.723,1472.44,581.506,1470.092,582.66,1467.063Z" transform="translate(-571.801 -1344.912)" fill="#dba17b"/>
        <path id="パス_197" data-name="パス 197" d="M602.5,1114.832,589,1107.6s-2.555,3.42-2.534,10.961c.062,13.846,3.317,29.072,1.442,39.518-1.339,7.52-3.4,16.195-5.213,23.282.124.041.268.062.391.1a23.63,23.63,0,0,0,6.635,1.36c2.781-7.335,7.685-18.585,8.8-23.53C600.213,1151.816,602.5,1114.832,602.5,1114.832Z" transform="translate(-578.868 -1060.674)" fill="#0b4870"/>
        <path id="パス_198" data-name="パス 198" d="M630.239,970.5s5.068,9.643,2.658,16.627-2.658,15.061-3.132,20.357-26.146-4.636-21.2-11.208c6.14-8.2,11.641-30.432,17.266-28.948S630.239,970.5,630.239,970.5Z" transform="translate(-598.901 -949.247)" fill="#ffbe55"/>
        <path id="パス_199" data-name="パス 199" d="M708.6,959.6c0,1.483.453,3.3,1.586,4.141l.865-1.813A12.533,12.533,0,0,0,708.6,959.6Z" transform="translate(-678.827 -943.168)" fill="#cc9271"/>
        <path id="パス_200" data-name="パス 200" d="M691.161,892.9,684.3,910.475l6,1.5.577-1.2c-1.133-.845-1.587-2.658-1.587-4.141a12.055,12.055,0,0,1,2.452,2.349l.062-.1c6.222,3.647,11.373-9.869,11.373-9.869Z" transform="translate(-659.534 -890.211)" fill="#dba17b"/>
        <g id="グループ_141" data-name="グループ 141" transform="translate(28.907 24.273)">
          <path id="パス_201" data-name="パス 201" d="M710.293,1014.8s4.286,12.362,11.559,14.155c7.356,1.813,18.647-10.776,18.379-10.57l3.606,2.06s-14.752,16.978-23.406,13.887c-11.085-3.976-14.855-9.993-16.03-11Z" transform="translate(-704.4 -1011.268)" fill="#dba17b"/>
          <path id="パス_202" data-name="パス 202" d="M878.56,1008.564c-.124-.185,3.07-2.411,3.379-2.658,1.319-.989,2.843-2.946,2.864-4.739a12.431,12.431,0,0,0-.515-1.958c-.165-1.195-2.287-.824-3.091-.206,0,0,.433-1.216.082-1.339s-1.566,1.03-2.308,2.575-2.472,5.254-2.472,5.254Z" transform="translate(-841.041 -997.656)" fill="#dba17b"/>
        </g>
        <path id="パス_203" data-name="パス 203" d="M690.332,1003.629l9.4-7.706s-2.885-6.037-6.264-7.479C690.105,987,686.726,991.823,690.332,1003.629Z" transform="translate(-663.094 -965.873)" fill="#ffbe55"/>
        <path id="パス_204" data-name="パス 204" d="M631.4,892.654a24.845,24.845,0,0,0,1.236-6.181c.845.536,2,1.236,3.4,1.978,3.255,1.71,5.316,2.926,5.893,1.9a4.937,4.937,0,0,0,.639-3.832,4.654,4.654,0,0,0-1.3-1.957,10.708,10.708,0,0,0-6.593-2.637c-1.916-1.3-4.533-2.6-7.005-1.854-2.843.845-3.461,3.729-7.417,10.508-2.885,4.924-2.8,3.812-6.593,10.1-3.3,5.46-4.986,8.283-6.181,12.156-.948,3.029-2.988,9.643-.412,11.538,1.731,1.257,5.13.144,7.211-1.648,3.008-2.575,1.71-5.254,4.327-10.714a17.224,17.224,0,0,1,1.236-2.2,87.646,87.646,0,0,1,5.975-7.685A30.052,30.052,0,0,0,631.4,892.654Z" transform="translate(-597.221 -879.849)" fill="#0e538c"/>
      </g>
    </g>
  </g>
</svg>
