<svg xmlns="http://www.w3.org/2000/svg" viewBox="0 0 663.645 580.44">
  <g id="agreement" transform="translate(331.822 290.22)">
    <g id="agreement-2" data-name="agreement" transform="translate(-331.822 -290.22)">
      <g id="Settings" transform="translate(430.45 187.438)">
        <g id="グループ_267" data-name="グループ 267" transform="translate(0)">
          <g id="グループ_266" data-name="グループ 266">
            <path id="パス_478" data-name="パス 478" d="M778.23,530.638a78.912,78.912,0,0,1-9.113-.526,5.111,5.111,0,0,1-4.511-5.369,16.634,16.634,0,0,0-10.14-16.27,17.258,17.258,0,0,0-18.688,4.206,5.113,5.113,0,0,1-6.994.552,78.721,78.721,0,0,1-12.52-12.663,5.128,5.128,0,0,1,.559-6.923,16.672,16.672,0,0,0,4.193-18.539A16.431,16.431,0,0,0,705.6,464.835c-2.568,0-5.61-1.859-5.909-4.524a79.3,79.3,0,0,1,.033-17.993,5.005,5.005,0,0,1,5.3-4.511c7.326,0,13.748-3.978,16.335-10.134a16.6,16.6,0,0,0-4.193-18.7,5.123,5.123,0,0,1-.546-6.988,78.6,78.6,0,0,1,12.8-12.656,5.146,5.146,0,0,1,6.936.585,17.329,17.329,0,0,0,18.558,4.225,16.69,16.69,0,0,0,10.264-16,5.139,5.139,0,0,1,4.55-5.259,79.11,79.11,0,0,1,17.8.046,5.1,5.1,0,0,1,4.511,5.369,16.658,16.658,0,0,0,10.128,16.277,17.289,17.289,0,0,0,18.7-4.2,5.111,5.111,0,0,1,6.988-.566,78.339,78.339,0,0,1,12.539,12.663,5.122,5.122,0,0,1-.559,6.929,16.552,16.552,0,0,0,11.337,28.809c2.5,0,5.486,1.859,5.785,4.531h0a79.3,79.3,0,0,1-.032,17.993,5.1,5.1,0,0,1-5.4,4.5l-.93-.026a16.554,16.554,0,0,0-11.116,28.861,5.116,5.116,0,0,1,.553,6.988,79.1,79.1,0,0,1-12.8,12.656,5.111,5.111,0,0,1-6.936-.579,17.353,17.353,0,0,0-18.571-4.225A16.672,16.672,0,0,0,791.465,524.9a5.146,5.146,0,0,1-4.55,5.265A82.4,82.4,0,0,1,778.23,530.638ZM748.445,505.8a17.07,17.07,0,0,1,6.6,1.281,18.134,18.134,0,0,1,11.064,17.746,3.608,3.608,0,0,0,3.179,3.79,77.633,77.633,0,0,0,17.46.046,3.628,3.628,0,0,0,3.211-3.712,18.178,18.178,0,0,1,11.187-17.434,18.914,18.914,0,0,1,20.249,4.609,3.6,3.6,0,0,0,4.895.4,77.356,77.356,0,0,0,12.552-12.409,3.6,3.6,0,0,0-.39-4.927,18.127,18.127,0,0,1-4.583-20.4,18.313,18.313,0,0,1,16.725-11.083l.988.026a3.6,3.6,0,0,0,3.822-3.179,77.4,77.4,0,0,0,.032-17.648h0c-.2-1.794-2.47-3.192-4.29-3.192a18.06,18.06,0,0,1-12.357-31.429,3.615,3.615,0,0,0,.4-4.888,76.867,76.867,0,0,0-12.292-12.416,3.606,3.606,0,0,0-4.927.4,18.851,18.851,0,0,1-20.392,4.583,18.168,18.168,0,0,1-11.05-17.752,3.608,3.608,0,0,0-3.179-3.79,77.64,77.64,0,0,0-17.46-.046,3.624,3.624,0,0,0-3.211,3.712,18.192,18.192,0,0,1-11.2,17.44,18.9,18.9,0,0,1-20.242-4.609,3.631,3.631,0,0,0-4.895-.41,77.116,77.116,0,0,0-12.552,12.409,3.612,3.612,0,0,0,.39,4.927,18.125,18.125,0,0,1,4.57,20.4c-2.821,6.715-9.783,11.057-17.746,11.057a3.509,3.509,0,0,0-3.777,3.185,77.766,77.766,0,0,0-.032,17.648c.2,1.794,2.522,3.185,4.394,3.185a17.909,17.909,0,0,1,16.823,11.207,18.189,18.189,0,0,1-4.57,20.222,3.621,3.621,0,0,0-.4,4.882,77.33,77.33,0,0,0,12.279,12.422,3.613,3.613,0,0,0,4.934-.39A18.832,18.832,0,0,1,748.445,505.8Zm30-27.223a26.892,26.892,0,1,1,26.892-26.892A26.924,26.924,0,0,1,778.445,478.577Zm0-52.282a25.39,25.39,0,1,0,25.384,25.39A25.417,25.417,0,0,0,778.445,426.295Z" transform="translate(-699.197 -372.402)" fill="#ffbe55"/>
          </g>
        </g>
      </g>
      <g id="Settings_1_" transform="translate(42.727 264.148)">
        <g id="グループ_269" data-name="グループ 269">
          <g id="グループ_268" data-name="グループ 268">
            <path id="パス_479" data-name="パス 479" d="M236.208,673.336a96.576,96.576,0,0,1-10.485,3.952,6.267,6.267,0,0,1-7.735-3.77A20.419,20.419,0,0,0,198.5,660.329a21.185,21.185,0,0,0-18.864,14.041,6.283,6.283,0,0,1-7.573,4.108,95.968,95.968,0,0,1-20.353-7.963,6.294,6.294,0,0,1-2.828-8.047,20.474,20.474,0,0,0-4.544-22.888,20.174,20.174,0,0,0-22.407-3.835c-2.88,1.28-7.215.715-8.879-2.126a97.214,97.214,0,0,1-8.938-20.2,6.144,6.144,0,0,1,3.692-7.7c8.216-3.653,13.436-11.317,13.267-19.514a20.38,20.38,0,0,0-14.034-18.883,6.285,6.285,0,0,1-4.1-7.56,96.5,96.5,0,0,1,8.041-20.58,6.323,6.323,0,0,1,8.067-2.808,21.271,21.271,0,0,0,22.92-4.518,20.479,20.479,0,0,0,3.53-23.063,6.31,6.31,0,0,1,2.483-8.171,97.392,97.392,0,0,1,19.988-8.827,6.273,6.273,0,0,1,7.735,3.77,20.435,20.435,0,0,0,19.475,13.2,21.216,21.216,0,0,0,18.87-14.034,6.274,6.274,0,0,1,7.553-4.115,96.072,96.072,0,0,1,20.372,7.943,6.291,6.291,0,0,1,2.828,8.054,20.315,20.315,0,0,0,27.087,26.651c2.8-1.248,7.079-.65,8.749,2.191h0a97.065,97.065,0,0,1,8.938,20.2,6.266,6.266,0,0,1-3.8,7.742l-1.053.436a20.6,20.6,0,0,0-12.11,19.039,20.382,20.382,0,0,0,14.041,18.877,6.268,6.268,0,0,1,4.1,7.56,96.956,96.956,0,0,1-8.041,20.58,6.274,6.274,0,0,1-8.067,2.808,21.3,21.3,0,0,0-22.933,4.518,20.439,20.439,0,0,0-3.523,23.044,6.308,6.308,0,0,1-2.477,8.171A89.95,89.95,0,0,1,236.208,673.336Zm-45.795-13a20.933,20.933,0,0,1,8.041-1.859,22.27,22.27,0,0,1,21.263,14.385,4.413,4.413,0,0,0,5.454,2.659,95.062,95.062,0,0,0,19.6-8.658,4.449,4.449,0,0,0,1.749-5.766,22.3,22.3,0,0,1,3.855-25.137c6.123-6.383,16.875-8.509,25.007-4.934a4.437,4.437,0,0,0,5.694-1.989,94.834,94.834,0,0,0,7.885-20.177,4.42,4.42,0,0,0-2.893-5.33,22.247,22.247,0,0,1-15.315-20.593,22.48,22.48,0,0,1,13.228-20.775l1.125-.468a4.418,4.418,0,0,0,2.7-5.467,95.4,95.4,0,0,0-8.769-19.813h0c-1.125-1.911-4.362-2.347-6.4-1.437A22.165,22.165,0,0,1,243.1,505.894a4.439,4.439,0,0,0-2-5.681,94.073,94.073,0,0,0-19.982-7.794,4.412,4.412,0,0,0-5.324,2.906,23.14,23.14,0,0,1-20.587,15.308,22.289,22.289,0,0,1-21.243-14.4,4.413,4.413,0,0,0-5.454-2.659,95.381,95.381,0,0,0-19.6,8.658A4.451,4.451,0,0,0,147.166,508a22.334,22.334,0,0,1-3.861,25.15c-6.123,6.383-16.875,8.5-25,4.927a4.46,4.46,0,0,0-5.694,1.983,94.168,94.168,0,0,0-7.885,20.184,4.439,4.439,0,0,0,2.893,5.337,22.241,22.241,0,0,1,15.3,20.606c.189,8.938-5.46,17.278-14.385,21.25a4.311,4.311,0,0,0-2.652,5.454,95.7,95.7,0,0,0,8.769,19.813c1.118,1.911,4.42,2.314,6.513,1.378a21.966,21.966,0,0,1,24.454,4.18,22.311,22.311,0,0,1,4.96,24.955,4.441,4.441,0,0,0,2,5.675,94.7,94.7,0,0,0,19.969,7.807,4.434,4.434,0,0,0,5.337-2.9A23.1,23.1,0,0,1,190.413,660.335Zm20.066-45.5a33.011,33.011,0,1,1,16.745-43.578A33.05,33.05,0,0,1,210.479,614.84ZM184.4,556.2a31.16,31.16,0,1,0,41.134,15.809A31.2,31.2,0,0,0,184.4,556.2Z" transform="translate(-102.73 -490.411)" fill="#ffbe55"/>
          </g>
        </g>
      </g>
      <g id="グループ_270" data-name="グループ 270" transform="translate(151.315 38.3)">
        <rect id="長方形_66" data-name="長方形 66" width="351.297" height="516.171" transform="translate(0 0)" fill="#f7f7f7"/>
        <rect id="長方形_67" data-name="長方形 67" width="312.081" height="472.853" transform="translate(19.611 21.659)" fill="#fff"/>
        <path id="パス_480" data-name="パス 480" d="M595.828,307.621H335.75a7.823,7.823,0,0,1-7.8-7.8V246.7a7.823,7.823,0,0,1,7.8-7.8H595.835a7.823,7.823,0,0,1,7.8,7.8v53.121A7.833,7.833,0,0,1,595.828,307.621Z" transform="translate(-290.138 -176.542)" fill="#ffbe55" opacity="0.1"/>
        <path id="パス_481" data-name="パス 481" d="M415.418,379.935H333.007a5.071,5.071,0,0,1-5.057-5.057h0a5.071,5.071,0,0,1,5.057-5.057h82.411a5.071,5.071,0,0,1,5.057,5.057h0A5.071,5.071,0,0,1,415.418,379.935Z" transform="translate(-290.138 -222.36)" fill="#ffbe55" opacity="0.1"/>
        <path id="パス_482" data-name="パス 482" d="M598.571,424.865H333.007a5.071,5.071,0,0,1-5.057-5.057h0a5.071,5.071,0,0,1,5.057-5.057H598.571a5.071,5.071,0,0,1,5.057,5.057h0A5.076,5.076,0,0,1,598.571,424.865Z" transform="translate(-290.138 -238.084)" fill="#ffbe55" opacity="0.1"/>
        <path id="パス_483" data-name="パス 483" d="M598.571,460.655H333.007a5.071,5.071,0,0,1-5.057-5.057h0a5.071,5.071,0,0,1,5.057-5.057H598.571a5.071,5.071,0,0,1,5.057,5.057h0A5.071,5.071,0,0,1,598.571,460.655Z" transform="translate(-290.138 -250.61)" fill="#ffbe55" opacity="0.1"/>
        <path id="パス_484" data-name="パス 484" d="M598.571,496.445H333.007a5.071,5.071,0,0,1-5.057-5.057h0a5.071,5.071,0,0,1,5.057-5.057H598.571a5.071,5.071,0,0,1,5.057,5.057h0A5.071,5.071,0,0,1,598.571,496.445Z" transform="translate(-290.138 -263.135)" fill="#ffbe55" opacity="0.1"/>
        <path id="パス_485" data-name="パス 485" d="M598.571,532.245H333.007a5.071,5.071,0,0,1-5.057-5.057h0a5.071,5.071,0,0,1,5.057-5.057H598.571a5.071,5.071,0,0,1,5.057,5.057h0A5.071,5.071,0,0,1,598.571,532.245Z" transform="translate(-290.138 -275.664)" fill="#ffbe55" opacity="0.1"/>
        <path id="パス_486" data-name="パス 486" d="M598.571,568.034H333.007a5.071,5.071,0,0,1-5.057-5.057h0a5.071,5.071,0,0,1,5.057-5.057H598.571a5.071,5.071,0,0,1,5.057,5.057h0A5.071,5.071,0,0,1,598.571,568.034Z" transform="translate(-290.138 -288.189)" fill="#ffbe55" opacity="0.1"/>
        <path id="パス_487" data-name="パス 487" d="M598.571,603.835H333.007a5.071,5.071,0,0,1-5.057-5.057h0a5.071,5.071,0,0,1,5.057-5.057H598.571a5.071,5.071,0,0,1,5.057,5.057h0A5.071,5.071,0,0,1,598.571,603.835Z" transform="translate(-290.138 -300.718)" fill="#ffbe55" opacity="0.1"/>
        <path id="パス_488" data-name="パス 488" d="M598.571,639.625H333.007a5.071,5.071,0,0,1-5.057-5.057h0a5.071,5.071,0,0,1,5.057-5.057H598.571a5.071,5.071,0,0,1,5.057,5.057h0A5.071,5.071,0,0,1,598.571,639.625Z" transform="translate(-290.138 -313.243)" fill="#ffbe55" opacity="0.1"/>
        <path id="パス_489" data-name="パス 489" d="M598.571,675.425H333.007a5.071,5.071,0,0,1-5.057-5.057h0a5.071,5.071,0,0,1,5.057-5.057H598.571a5.071,5.071,0,0,1,5.057,5.057h0A5.076,5.076,0,0,1,598.571,675.425Z" transform="translate(-290.138 -325.772)" fill="#ffbe55" opacity="0.1"/>
        <path id="パス_490" data-name="パス 490" d="M598.571,711.214H333.007a5.071,5.071,0,0,1-5.057-5.057h0a5.071,5.071,0,0,1,5.057-5.057H598.571a5.071,5.071,0,0,1,5.057,5.057h0A5.071,5.071,0,0,1,598.571,711.214Z" transform="translate(-290.138 -338.297)" fill="#ffbe55" opacity="0.1"/>
        <path id="パス_491" data-name="パス 491" d="M483.256,747.015H333.007a5.071,5.071,0,0,1-5.057-5.057h0a5.071,5.071,0,0,1,5.057-5.057H483.256a5.071,5.071,0,0,1,5.057,5.057h0A5.075,5.075,0,0,1,483.256,747.015Z" transform="translate(-290.138 -350.826)" fill="#ffbe55" opacity="0.1"/>
        <ellipse id="楕円形_56" data-name="楕円形 56" cx="40.803" cy="40.803" rx="40.803" ry="40.803" transform="translate(234.922 398.789)" fill="#ffbe55"/>
        <ellipse id="楕円形_57" data-name="楕円形 57" cx="40.803" cy="40.803" rx="40.803" ry="40.803" transform="translate(238.334 394.96)" fill="none" stroke="#ffbe55" stroke-miterlimit="10" stroke-width="0.65"/>
      </g>
      <path id="パス_492" data-name="パス 492" d="M687.641,957.679H59.606a6.173,6.173,0,0,1-6.156-6.156V927.966a6.173,6.173,0,0,1,6.156-6.156H687.635a6.173,6.173,0,0,1,6.156,6.156v23.557A6.167,6.167,0,0,1,687.641,957.679Z" transform="translate(-42.757 -377.239)" fill="#f2f2f2"/>
      <path id="パス_493" data-name="パス 493" d="M461.75,604.821l1.606,14.028s9.737.13,13.482-4.167a12.51,12.51,0,0,0-2.425-4.55s.923.182,4.219-.683c-2.132-1.619-12.2-7.319-12.2-7.319Z" transform="translate(-185.648 -265.361)" fill="#fcd2b1"/>
      <path id="パス_494" data-name="パス 494" d="M482.121,615.962s-1.989-5.246-4.05-4.713-9.971,7.306-7.2,10.017c3.081,3.01,2.568,5.824,2.568,5.824S483.135,623.126,482.121,615.962Z" transform="translate(-188.638 -268.539)" fill="#fcd2b1"/>
      <g id="グループ_273" data-name="グループ 273" transform="translate(315.927 10.284)">
        <g id="グループ_272" data-name="グループ 272" transform="translate(87.678 352.071)">
          <g id="グループ_271" data-name="グループ 271" transform="translate(13.163)">
            <path id="パス_495" data-name="パス 495" d="M711.412,664.943H681a2.846,2.846,0,0,1-2.847-2.847V644.337A2.851,2.851,0,0,1,681,641.49h30.415a2.85,2.85,0,0,1,2.847,2.847V662.1A2.85,2.85,0,0,1,711.412,664.943Zm-29.362-3.9h28.309V645.39H682.05Z" transform="translate(-678.15 -641.49)" fill="#9acff7"/>
          </g>
          <path id="パス_496" data-name="パス 496" d="M720.329,662.433V697.4a2.9,2.9,0,0,1-2.893,2.893H660.793A2.9,2.9,0,0,1,657.9,697.4V662.433a2.9,2.9,0,0,1,2.893-2.893h56.644A2.9,2.9,0,0,1,720.329,662.433Z" transform="translate(-657.9 -647.807)" fill="#cce9ff"/>
          <path id="パス_497" data-name="パス 497" d="M720.329,662.433v17.486H657.9V662.433a2.9,2.9,0,0,1,2.893-2.893h56.644A2.9,2.9,0,0,1,720.329,662.433Z" transform="translate(-657.9 -647.807)" fill="#9acff7"/>
          <rect id="長方形_68" data-name="長方形 68" width="15.562" height="8.034" transform="translate(23.434 29.485)" fill="#2a94f4"/>
        </g>
        <path id="パス_498" data-name="パス 498" d="M591.464,613.87,584.34,821.055h14.834s22.1-96.79,11.642-113.028c9.718-29.882,25.085-93.078,25.085-93.078Z" transform="translate(-544.478 -279.753)" fill="#0d517f"/>
        <path id="パス_499" data-name="パス 499" d="M601.85,610.74l10.479,21.692,42.363,188.587H669.5S669.382,725.6,653.391,709.3c-1.885-35.173.78-81.579-6.819-105.565C616.248,596.914,601.85,610.74,601.85,610.74Z" transform="translate(-550.606 -275.544)" fill="#0e538c"/>
        <path id="パス_500" data-name="パス 500" d="M590.572,465.1c-12.286,21.367-31.949,56.709-54.122,67.961a37.3,37.3,0,0,0,4.173,9.185s34.991-12.507,46.211-30.136S590.572,465.1,590.572,465.1Z" transform="translate(-527.719 -227.689)" fill="#0b3a54"/>
        <path id="パス_501" data-name="パス 501" d="M701.357,623.243c-2.314,1.352-7.4,19.28-7.4,19.28s9.2,2.015,14.619-2.5c3.426-10.648-3.608-21.477-3.608-21.477Z" transform="translate(-582.842 -281.391)" fill="#fcd2b1"/>
        <path id="パス_502" data-name="パス 502" d="M627.739,395.759c-.325,3.614-2.659,16.16-2.659,16.16l25.085-12.754-1.2-3.218-6.513-13.579s-6.318.214-6.955,0S627.739,395.759,627.739,395.759Z" transform="translate(-558.736 -198.734)" fill="#fcd2b1"/>
        <path id="パス_503" data-name="パス 503" d="M657.542,321.81c6.318,11.46,14.223,3.952,9.282,17.973,1.547,2.373,10.076,7.508-7.306,25.085-5.532,8.892-7.56,9.874-7.56,9.874s-4-5.779-6.513-10.5l-11.8-35.726Z" transform="translate(-561.732 -177.542)" fill="#0e538c"/>
        <path id="パス_504" data-name="パス 504" d="M609.655,339.54S596.771,350.4,604.1,380.473c10.362,1.515,19.963-2.529,19.963-2.529l10.258-8.879s-2.171-32.053-13.04-33.314S609.655,339.54,609.655,339.54Z" transform="translate(-550.604 -182.349)" fill="#ffe3ca"/>
        <path id="パス_505" data-name="パス 505" d="M622.089,333.458c-7.9.4-28.3-7.9-21.061-16.985s14.548,2.763,19.481.988,18.766-10.271,25.085,1.183C645.594,318.643,649.15,332.47,622.089,333.458Z" transform="translate(-549.784 -174.375)" fill="#0e538c"/>
        <ellipse id="楕円形_58" data-name="楕円形 58" cx="6.604" cy="4.316" rx="6.604" ry="4.316" transform="matrix(0.583, -0.813, 0.813, 0.583, 75.994, 175.902)" fill="#ffe3ca"/>
        <path id="パス_506" data-name="パス 506" d="M633.319,338.225c-1.125,9.276-.572,14.483.93,16.01a34.39,34.39,0,0,1,1.645,6.481h3.8s5.35-10.726,5.428-14.158S643.5,335.54,643.5,335.54Z" transform="translate(-561.411 -182.347)" fill="#0e538c"/>
        <path id="パス_507" data-name="パス 507" d="M642.609,419.231V403.26s-33.041,11.8-34.907,15.971-17.161,47.524-17.161,47.524-.058,97.082.052,100.423c6.052-7.794,23.525-23.57,23.525-23.57l41.069,23.57s-13.339-50.631-13.937-54.083,8.171-38.306,8.171-38.306Z" transform="translate(-546.643 -206.047)" fill="#0b4870"/>
        <path id="パス_508" data-name="パス 508" d="M656.923,430.6c-14.762,1.5-20.483,6.923-20.483,12.949,9.64,21.386,47.589,57.346,42.473,115.27a100.928,100.928,0,0,0,11.447,0S712.039,485.723,656.923,430.6Z" transform="translate(-562.712 -215.615)" fill="#125d87"/>
        <path id="パス_509" data-name="パス 509" d="M536.332,572.3c-.137-.091-.267-.175-.39-.266a14.127,14.127,0,0,1-4.193-3.842c-.962-1.365-4.953-3.881-6.877-2.028s-2.1,5.473-1.645,6.838-.13,7.2.832,8.314,4.511,3.179,7.469,2.88,4.8-3.471,5.467-6.208A10.046,10.046,0,0,0,536.332,572.3Z" transform="translate(-523.018 -262.829)" fill="#edbc9a"/>
        <path id="パス_510" data-name="パス 510" d="M566.268,933.16,532.7,947.805h49.487l-1.079-14.645Z" transform="translate(-526.406 -391.494)" fill="#0b4870"/>
        <path id="パス_511" data-name="パス 511" d="M664.364,933.16,630.79,947.805h49.487L679.2,933.16Z" transform="translate(-560.734 -391.494)" fill="#0b4870"/>
        <path id="パス_512" data-name="パス 512" d="M752.22,211.86H670.466a16.625,16.625,0,0,0-16.576,16.576v20.3a16.625,16.625,0,0,0,16.576,16.576h4.5l-8.411,14.4,20.229-14.4H752.22A16.625,16.625,0,0,0,768.8,248.736v-20.3A16.62,16.62,0,0,0,752.22,211.86Z" transform="translate(-568.819 -139.063)" fill="#ffbe55"/>
        <path id="パス_513" data-name="パス 513" d="M615.44,99.87H575.9a34.951,34.951,0,0,0-34.848,34.848h0a34.949,34.949,0,0,0,34.5,34.842c8.893,5.714,20.125,12.806,20.125,12.806l-6.773-12.8h26.547a34.951,34.951,0,0,0,34.848-34.848h0A34.957,34.957,0,0,0,615.44,99.87Z" transform="translate(-529.328 -99.87)" fill="#ffbe55"/>
      </g>
      <g id="グループ_277" data-name="グループ 277" transform="translate(96.082)">
        <g id="グループ_274" data-name="グループ 274" transform="translate(59.581 156.192)">
          <path id="パス_514" data-name="パス 514" d="M379.246,341.063c-4.667-7.183-10.264-15.016-18.7-16.485-5.168-.9-10.427.832-15.211,2.984-8.379,3.764-16.582,9.406-20.008,17.928-3.341,8.32-1.521,17.674-.338,26.56s1.385,18.838-4.323,25.748c-6.136,7.417-16.816,8.723-25.351,13.176a36.323,36.323,0,0,0-17.544,20.768c-1.437,4.433-1.963,9.4-.117,13.677,2.015,4.654,6.5,7.761,11.109,9.881,19.618,9.016,44.15,3.315,60.076-11.265s23.726-36.649,23.947-58.236c.078-7.683-.715-15.5,1.112-22.959,1.021-4.173,2.834-8.119,3.77-12.312Z" transform="translate(-276.468 -324.334)" fill="#0e538c"/>
        </g>
        <path id="パス_515" data-name="パス 515" d="M391.25,477.129c13.748,33.028,30.005,64.087,46.016,84.641a13.7,13.7,0,0,0,9.854-3.179s-34.179-60.043-31.6-78.5S391.25,477.129,391.25,477.129Z" transform="translate(-257.057 -219.482)" fill="#1989dd"/>
        <g id="グループ_276" data-name="グループ 276" transform="translate(150.71 307.668)">
          <rect id="長方形_69" data-name="長方形 69" width="36.337" height="50.183" transform="matrix(0.861, 0.508, -0.508, 0.861, 25.513, 0)" fill="#cce9ff"/>
          <rect id="長方形_70" data-name="長方形 70" width="32.209" height="45.372" transform="matrix(0.861, 0.508, -0.508, 0.861, 26.297, 2.739)" fill="#fff"/>
          <path id="パス_516" data-name="パス 516" d="M468.4,562.94l13.618,8.041a1.58,1.58,0,0,1,.559,2.165l-2.191,3.712a1.58,1.58,0,0,1-2.165.559L464.6,569.376a1.58,1.58,0,0,1-.559-2.165l2.191-3.712A1.577,1.577,0,0,1,468.4,562.94Z" transform="translate(-433.166 -559.237)" fill="#0e538c"/>
          <g id="グループ_275" data-name="グループ 275" transform="translate(10.326 9.662)">
            <path id="パス_517" data-name="パス 517" d="M454.076,572.319l23.98,14.158a.668.668,0,0,1,.234.917h0a.668.668,0,0,1-.917.234l-23.98-14.158a.668.668,0,0,1-.234-.917h0A.667.667,0,0,1,454.076,572.319Z" transform="translate(-439.727 -572.226)" fill="#cce9ff"/>
            <path id="パス_518" data-name="パス 518" d="M450.666,578.1l23.98,14.158a.668.668,0,0,1,.234.917h0a.668.668,0,0,1-.917.234l-23.98-14.158a.668.668,0,0,1-.234-.917h0A.667.667,0,0,1,450.666,578.1Z" transform="translate(-438.533 -574.248)" fill="#cce9ff"/>
            <path id="パス_519" data-name="パス 519" d="M447.256,583.869l23.98,14.158a.668.668,0,0,1,.234.917h0a.668.668,0,0,1-.917.234l-23.98-14.158a.668.668,0,0,1-.234-.917h0A.667.667,0,0,1,447.256,583.869Z" transform="translate(-437.34 -576.268)" fill="#cce9ff"/>
            <path id="パス_520" data-name="パス 520" d="M443.846,589.649l23.98,14.158a.668.668,0,0,1,.234.917h0a.668.668,0,0,1-.917.234L443.163,590.8a.668.668,0,0,1-.234-.917h0A.667.667,0,0,1,443.846,589.649Z" transform="translate(-436.147 -578.29)" fill="#cce9ff"/>
            <path id="パス_521" data-name="パス 521" d="M440.436,595.42l23.98,14.158a.668.668,0,0,1,.234.917h0a.668.668,0,0,1-.917.234l-23.98-14.158a.668.668,0,0,1-.234-.917h0A.672.672,0,0,1,440.436,595.42Z" transform="translate(-434.953 -580.311)" fill="#cce9ff"/>
            <path id="パス_522" data-name="パス 522" d="M437.026,601.2l23.98,14.158a.668.668,0,0,1,.234.917h0a.668.668,0,0,1-.917.234l-23.98-14.158a.668.668,0,0,1-.234-.917h0A.667.667,0,0,1,437.026,601.2Z" transform="translate(-433.76 -582.333)" fill="#cce9ff"/>
            <path id="パス_523" data-name="パス 523" d="M433.406,606.827l16.225,9.581c.215.13.241.487.052.806h0c-.188.318-.514.474-.734.345l-16.225-9.581c-.214-.13-.24-.488-.052-.806h0C432.86,606.86,433.192,606.7,433.406,606.827Z" transform="translate(-432.545 -584.32)" fill="#cce9ff"/>
          </g>
          <ellipse id="楕円形_59" data-name="楕円形 59" cx="3.926" cy="3.926" rx="3.926" ry="3.926" transform="translate(25.175 46.697)" fill="#ffbe55"/>
        </g>
        <path id="パス_524" data-name="パス 524" d="M400.4,918.53l7.95,11.454a22.752,22.752,0,0,0,6.63,6.318l10.232,6.383H399.63l-8.314-9.764v9.764h-3.8V918.53Z" transform="translate(-255.752 -376.091)" fill="#ffbe55"/>
        <path id="パス_525" data-name="パス 525" d="M409.859,730.315c-1.2,4.316-12,120.4-12,120.4s-13.2,3.777-12.8,0-13.6-96.64,4.4-120.4C401.857,720.6,409.859,730.315,409.859,730.315Z" transform="translate(-253.208 -308.71)" fill="#f7c39f"/>
        <path id="パス_526" data-name="パス 526" d="M390.244,918.53l7.95,11.454a22.752,22.752,0,0,0,6.63,6.318l10.232,6.383H389.47l-8.314-9.764v9.764h-3.8V918.53Z" transform="translate(-252.196 -376.091)" fill="#ffbe55"/>
        <path id="パス_527" data-name="パス 527" d="M399.7,730.315c-1.2,4.316-12,120.4-12,120.4s-13.2,3.777-12.8,0-13.6-96.64,4.4-120.4C391.7,720.6,399.7,730.315,399.7,730.315Z" transform="translate(-249.652 -308.71)" fill="#fcd2b1"/>
        <path id="パス_528" data-name="パス 528" d="M375.706,569.6c-9.269,10.232-22.667,20.6-12.416,51.827a80.333,80.333,0,0,1,1.84,42.909c-4.141,18.155-7.82,40.438-7.82,40.438l46.549,1.307s14.626-107.99,3.686-136.481C393.965,564.551,375.706,569.6,375.706,569.6Z" transform="translate(-245.179 -253.192)" fill="#0e538c"/>
        <path id="パス_529" data-name="パス 529" d="M396.977,429.082c5.46,7.937,23.993,36.155,22.933,40.088C418.65,473.863,410.7,518.6,410.7,518.6H378.868s4.017-10.251.663-17.083-30.058-55.012,3.8-79.9C389.164,423.843,396.977,429.082,396.977,429.082Z" transform="translate(-248.348 -202.188)" fill="#2a94f4"/>
        <path id="パス_530" data-name="パス 530" d="M407.781,409.485c-.728,5.655-1.638,10.03.91,18.24-7.475-3.283-15.685-10.03-16.231-12.585,2.555-6.019,5.291-9.919,3.1-15.081C399.207,400.548,407.781,409.485,407.781,409.485Z" transform="translate(-257.481 -194.643)" fill="#fcd2b1"/>
        <path id="パス_531" data-name="パス 531" d="M418.975,354.9c3.25,11.051,2.444,42.636-6.1,41.316s-18.734-5.59-22.68-16.433S393.852,335.929,418.975,354.9Z" transform="translate(-256.344 -176.821)" fill="#ffe3ca"/>
        <ellipse id="楕円形_60" data-name="楕円形 60" cx="3.159" cy="5.051" rx="3.159" ry="5.051" transform="matrix(0.866, -0.5, 0.5, 0.866, 125.923, 198.123)" fill="#ffe3ca"/>
        <path id="パス_532" data-name="パス 532" d="M376.992,374.312c19.391-5.259,34.757-15.5,38.4-25.026s-21.016-14.463-25.943-8.873S366.871,362.787,376.992,374.312Z" transform="translate(-250.99 -172.945)" fill="#0e538c"/>
        <ellipse id="楕円形_61" data-name="楕円形 61" cx="3.257" cy="3.257" rx="3.257" ry="3.257" transform="translate(130.527 202.16)" fill="#ffbe55"/>
        <path id="パス_533" data-name="パス 533" d="M387.142,430.711c-7.2-1.541-16.615,13.638-15.7,16.816S395.664,538.3,467.213,532.4c.228-.91,0-7.267,0-7.267S407.488,533.13,387.142,430.711Z" transform="translate(-250.102 -205.332)" fill="#34a2f4"/>
        <path id="パス_534" data-name="パス 534" d="M266.552,199.86H222.219a37.413,37.413,0,0,0-37.409,37.409h0a37.413,37.413,0,0,0,37.409,37.409H236.2c10.966,8.171,36.714,27.282,35.706,25.9-.878-1.209-10.082-16.439-15.776-25.9h10.42a37.413,37.413,0,0,0,37.409-37.409h0A37.413,37.413,0,0,0,266.552,199.86Z" transform="translate(-184.81 -124.58)" fill="#ffbe55"/>
        <path id="パス_535" data-name="パス 535" d="M417.625,124.268A40.261,40.261,0,1,0,384.746,163.8l-4.381,20.912,26.183-32.736-.019.006A40.036,40.036,0,0,0,417.625,124.268Z" transform="translate(-238.138 -84.05)" fill="#ffbe55"/>
        <path id="パス_536" data-name="パス 536" d="M517.4,575.078c.592-.176,3.712-.4,4.076-.91s1.677-4.3,2.769-4.511,2.041,6.1,0,9.419c-1.963,2.594-3.783,1.281-4.368,1.352s-3.5-.072-3.5-.072Z" transform="translate(-300.849 -253.995)" fill="#fcd2b1"/>
      </g>
      <g id="グループ_279" data-name="グループ 279" transform="translate(542.777 415.183)">
        <path id="パス_537" data-name="パス 537" d="M948.386,949.894c12.91,0,18.357-10.31,20.508-21.25,2.425-12.337.644-25.475.644-25.475h-42.3s-.065.5-.156,1.4C926.292,912.336,923.743,949.894,948.386,949.894Z" transform="translate(-891.112 -785.898)" fill="#b6e7ff"/>
        <path id="パス_538" data-name="パス 538" d="M927.57,902.281c0,.923,9.471,1.671,21.152,1.671s21.152-.748,21.152-1.671-9.471-1.671-21.152-1.671S927.57,901.351,927.57,902.281Z" transform="translate(-891.448 -785.003)" fill="#85ddff"/>
        <path id="パス_539" data-name="パス 539" d="M872,722.767s22.309,33.938,35.693,54.655,16.888,25.013,18.48,31.709,3.029,31.39,3.029,31.39h.988s-.345-20.964-1.554-28.016c-1.164-6.819.084-9.269,1.04-16.439s2.23-18.643-5.018-26.612-5.337-15.776-7.885-21.029-22.309-11.629-24.857-17.05S878.214,722.6,872,722.767Z" transform="translate(-872 -722.761)" fill="#2a94f4"/>
        <path id="パス_540" data-name="パス 540" d="M872,722.77s7.014,7.969,11.792,10.674,7.014.318,10.674,6.851,3.8,9.4,7.163,12.747,7.339,3.5,7.657,10.836a44.78,44.78,0,0,1-1.593,13.54S873.437,724.525,872,722.77Z" transform="translate(-872 -722.764)" fill="#41aaf7"/>
        <path id="パス_541" data-name="パス 541" d="M930.871,875.463h-1s-.3-6.786-3-10.082c-1.735-2.126-9.12-4.537-16.42-7.43a68.391,68.391,0,0,1-11.025-5.246c-8.489-5.389-16.569-22.758-17.265-25.852a10.158,10.158,0,0,1-.345-2.178v-.013c.02-.832.429-.956,1.144-1.794.345-.4,1.378-.266,2.639.117a15.137,15.137,0,0,1,8.658,6.936c1.768,3.062,4.6,6.89,8.06,7.82,5.987,1.6,5.493,2.594,7.7,8.684s7.774,7.085,14.756,14.275S930.871,875.463,930.871,875.463Z" transform="translate(-875.436 -757.71)" fill="#2a94f4"/>
        <path id="パス_542" data-name="パス 542" d="M910.454,859.055a68.389,68.389,0,0,1-11.025-5.246c-8.49-5.389-16.569-22.758-17.265-25.852a10.167,10.167,0,0,1-.345-2.178c.026.2.416,2.951,4.836,4.778,4.589,1.892,5.486,1.892,6.084,4.791s1.1,5.987,3.5,6.585,3.894-2.093,5.785,2.295,2.8,5.889,4.544,6.487,3.068-.3,3.458,3.094C910.259,855.883,910.389,857.846,910.454,859.055Z" transform="translate(-875.436 -758.815)" fill="#41aaf7"/>
        <path id="パス_543" data-name="パス 543" d="M968.536,851.028h1.183s2.314-42.018,5.506-45.918c2.054-2.516,8.84-7.033,17.492-10.459a81.294,81.294,0,0,0,13.059-6.214c10.05-6.383,19.624-26.957,20.45-30.623a12.1,12.1,0,0,0,.41-2.581v-.013c-.02-.988-.514-1.138-1.352-2.126-.4-.481-1.631-.312-3.127.143a17.946,17.946,0,0,0-10.258,8.21c-2.093,3.627-5.447,8.164-9.549,9.256-7.092,1.892-6.507,3.075-9.12,10.284s-9.2,8.392-17.479,16.9S968.536,851.028,968.536,851.028Z" transform="translate(-905.769 -733.276)" fill="#2a94f4"/>
        <path id="パス_544" data-name="パス 544" d="M1005.76,795.968a81.288,81.288,0,0,0,13.059-6.214c10.05-6.383,19.625-26.957,20.45-30.623a12.109,12.109,0,0,0,.41-2.581c-.026.241-.494,3.5-5.733,5.662-5.434,2.243-6.5,2.243-7.209,5.675s-1.307,7.092-4.141,7.8-4.609-2.483-6.851,2.717-3.322,6.975-5.382,7.683-3.634-.357-4.1,3.666C1005.994,792.2,1005.838,794.531,1005.76,795.968Z" transform="translate(-918.812 -734.586)" fill="#41aaf7"/>
        <g id="グループ_278" data-name="グループ 278" transform="translate(35.496 118.669)">
          <path id="パス_545" data-name="パス 545" d="M948.385,950.647c12.91,0,18.357-10.309,20.508-21.25-12.656-4.8-28.595-12.487-41.817-24.077C926.29,913.088,923.742,950.647,948.385,950.647Z" transform="translate(-926.606 -905.32)" fill="#cce9ff"/>
        </g>
      </g>
      <g id="グループ_281" data-name="グループ 281" transform="translate(0 457.554)">
        <path id="パス_546" data-name="パス 546" d="M114.932,949.085c-9.159,0-13.027-7.313-14.548-15.074a63.513,63.513,0,0,1-.455-18.071h30.012s.046.358.111.988C130.611,922.44,132.412,949.085,114.932,949.085Z" transform="translate(-58.867 -832.739)" fill="#b6e7ff"/>
        <path id="パス_547" data-name="パス 547" d="M130.169,915.3c0,.656-6.721,1.19-15.009,1.19s-15.009-.533-15.009-1.19,6.721-1.19,15.009-1.19S130.169,914.643,130.169,915.3Z" transform="translate(-59.1 -832.098)" fill="#85ddff"/>
        <path id="パス_548" data-name="パス 548" d="M65.77,787.948S81.6,812.025,91.089,826.723s11.98,17.746,13.111,22.5,2.145,22.27,2.145,22.27h1.242s.793-14.808-.676-19.67-.9-6.78-.228-11.87,1.58-13.228-3.562-18.877-3.79-11.194-5.6-14.918-15.828-8.249-17.635-12.1S70.184,787.838,65.77,787.948Z" transform="translate(-47.068 -787.944)" fill="#2a94f4"/>
        <path id="パス_549" data-name="パス 549" d="M65.77,787.95s4.973,5.655,8.366,7.573,4.973.227,7.573,4.862,2.7,6.669,5.083,9.042,5.207,2.49,5.434,7.69a31.686,31.686,0,0,1-1.131,9.608S66.791,789.192,65.77,787.95Z" transform="translate(-47.068 -787.946)" fill="#41aaf7"/>
        <path id="パス_550" data-name="パス 550" d="M92.558,884.24H91.427s-.338-7.683-3.393-11.415c-1.97-2.405-10.329-5.142-18.6-8.418a77.962,77.962,0,0,1-12.487-5.941c-9.607-6.1-18.766-25.774-19.553-29.277a11.75,11.75,0,0,1-.4-2.47v-.013c.02-.943.488-1.086,1.294-2.035.39-.462,1.56-.3,2.99.137a17.152,17.152,0,0,1,9.809,7.852c2,3.471,5.207,7.807,9.133,8.853,6.78,1.814,6.221,2.938,8.723,9.835s8.8,8.021,16.712,16.16S92.558,884.24,92.558,884.24Z" transform="translate(-37 -800.7)" fill="#2a94f4"/>
        <path id="パス_551" data-name="パス 551" d="M69.436,865.659a77.957,77.957,0,0,1-12.487-5.941c-9.607-6.1-18.766-25.774-19.553-29.277a11.749,11.749,0,0,1-.4-2.47c.026.234.475,3.341,5.48,5.415,5.194,2.145,6.214,2.145,6.89,5.428s1.248,6.78,3.959,7.462,4.407-2.373,6.552,2.6,3.172,6.669,5.148,7.345,3.471-.338,3.913,3.5C69.209,862.064,69.358,864.294,69.436,865.659Z" transform="translate(-37 -801.952)" fill="#41aaf7"/>
        <g id="グループ_280" data-name="グループ 280" transform="translate(41.518 84.189)">
          <path id="パス_552" data-name="パス 552" d="M115.418,949.617c-9.159,0-13.027-7.313-14.548-15.074,8.977-3.406,20.288-8.86,29.667-17.083C131.1,922.972,132.9,949.617,115.418,949.617Z" transform="translate(-100.87 -917.46)" fill="#cce9ff"/>
        </g>
      </g>
    </g>
  </g>
</svg>
