<svg xmlns="http://www.w3.org/2000/svg" viewBox="0 0 601.259 675.151">
  <g id="Dessert" transform="translate(300.63 337.576)">
    <g id="Dessert-2" data-name="Dessert" transform="translate(-300.629 -337.576)">
      <g id="Background">
        <path id="パス_100" data-name="パス 100" d="M799.232,667.215s274.342,14.316,267.722-177.739S855.769,316.513,929.423,182.908,806.227-58.051,711.406,34.994s-10.277,172.451-18.554,197.162-112.894-9.883-170.769,63.02c-34.164,43.035-31.107,123.652,36.358,178.952S462.708,682.412,799.232,667.215Z" transform="translate(-500.693 0.003)" fill="#2a94f4" opacity="0.1"/>
      </g>
      <g id="Characters" transform="translate(48.823 248.044)">
        <g id="グループ_104" data-name="グループ 104" transform="translate(244.009)">
          <path id="パス_101" data-name="パス 101" d="M1124.1,503.216c.019,1.557-34.458-22.142-44.4-31.382-8.552-8.971-12.8-45.929-13.447-48.748-5.483-5.045-6.051-10.665-5.414-13.584s.088-12.028.575-10.409c-.594-4.145,10.44-3.357,11.54,7.652,1.094,10.865,1.119,9.115,1.176,12.878,3.163,10.315,11.746,34.6,11.99,38.083,15.641,9.083,42.284,29.525,42.284,29.525Z" transform="translate(-1003.422 -396.78)" fill="#fcd2b1"/>
          <g id="グループ_103" data-name="グループ 103" transform="translate(0 48.491)">
            <g id="グループ_102" data-name="グループ 102">
              <path id="パス_102" data-name="パス 102" d="M1438.976,679.321c4.607-1.019,6.158-8.771.331-8.046-.312.037-.844.056-2.119.231-1.088.144-2.294.175-3.382.344-.988.15-5.808.319-6.92-1.775-1.707-3.213,4.857-2.738,5.507-5.532.2-.875-4.639-.363-7.264.325a29.626,29.626,0,0,0-5.4,1.732c-1.475.65-3.407,2.119-4.37,2.269a23.317,23.317,0,0,1-3.738-.169l-.9,8.833s5.376.219,6.776.95a20.752,20.752,0,0,0,10.709,2.951,39.6,39.6,0,0,0,7.271-1.006C1435.469,680.421,1438.626,679.4,1438.976,679.321Z" transform="translate(-1134.659 -545.472)" fill="#fcd2b1"/>
              <g id="グループ_96" data-name="グループ 96" transform="translate(160.054 310.663)">
                <path id="パス_103" data-name="パス 103" d="M1234.99,982.165s5.376,7.552,7.833,9.827,10.421-4.807,10.146-6.92-10.3-13.772-10.3-13.772" transform="translate(-1228.838 -971.3)" fill="#fcd2b1"/>
                <path id="パス_104" data-name="パス 104" d="M1253.35,992.65c2.375,2.55,6.439,7.708,6.439,7.708l-6.658,8.546-2.2-.625a18.236,18.236,0,0,1-2.707,6.545,39.8,39.8,0,0,1-7.2,6.9c-7.22,4.889-13.678,6.4-14.728,5.551-4.389-3.532,5.138-10.121,6.864-11.727a15.187,15.187,0,0,0,4.257-14.953c-.85-2.613-1.657-2.726-.313-3.344a3.5,3.5,0,0,1,2.776-.106,6.215,6.215,0,0,0,7.064-1.813,7.375,7.375,0,0,0,1.669-4.295C1248.6,991.031,1250.974,990.1,1253.35,992.65Z" transform="translate(-1225.149 -978.634)" fill="#0b4870"/>
              </g>
              <g id="グループ_97" data-name="グループ 97" transform="translate(0 327.61)">
                <path id="パス_105" data-name="パス 105" d="M1019.314,999.367s-2.426,8.946-2.625,12.29,10.327,5.007,11.784,3.451,4.107-16.7,4.107-16.7" transform="translate(-986.95 -998.41)" fill="#fcd2b1"/>
                <path id="パス_106" data-name="パス 106" d="M1013.042,1024.473c-.463,3.457-1.869,9.865-1.869,9.865l-10.827.275-.913-2.094a18.169,18.169,0,0,1-6.777,2.057,40.1,40.1,0,0,1-9.9-1.188c-8.358-2.475-13.622-6.514-13.634-7.864-.056-5.633,11.084-2.451,13.422-2.138a15.186,15.186,0,0,0,14.259-6.2c1.482-2.319,1.057-3.013,2.382-2.363a3.519,3.519,0,0,1,1.844,2.082,6.22,6.22,0,0,0,5.883,4.307,7.4,7.4,0,0,0,4.376-1.432C1011.279,1019.778,1013.5,1021.016,1013.042,1024.473Z" transform="translate(-969.12 -1004.475)" fill="#0b4870"/>
              </g>
              <path id="パス_107" data-name="パス 107" d="M1065.934,694.85s-30.551,77.836-34.326,94.577-18.1,101.016-18.1,101.016,13.4,3.8,18.329,2.107c3.37-13.859,37.94-120.8,60.5-149.533S1065.934,694.85,1065.934,694.85Z" transform="translate(-985.76 -557.007)" fill="#ffbe55"/>
              <path id="パス_108" data-name="パス 108" d="M1131.107,743.205s-6.9,37.79,16.36,76.2a613.194,613.194,0,0,0,47.179,67.152s10.059-4.926,13.822-10.321c-7.089-9.7-38.846-64.652-38.834-86.125s8.271-72.41,8.271-72.41l-35.352-8.439Z" transform="translate(-1029.484 -562.408)" fill="#ffbe55"/>
              <path id="パス_109" data-name="パス 109" d="M1314.755,636.336s-40.265,1.907-60.932-3.863-56.05-31.044-56.05-31.044l-41.7-31.913c-10.69-13.384,20.373-18.854,26.956-12.79l-.019.044c.481.388.831.719,1.094.919,4.114,3.482.825,10.215.825,10.215l7.089,2.663s7.639-3.926,12.428.306a17.36,17.36,0,0,1,1.557,1.588c6.533,7.064,22.449,32.27,54.8,45.1,23.543,5.745,49.492,10.008,55.831,10.09C1315.286,633.779,1314.755,636.336,1314.755,636.336Z" transform="translate(-1038.369 -504.306)" fill="#fcd2b1"/>
              <path id="パス_110" data-name="パス 110" d="M1221.774,571.566c-1.319,2.344-9.833,8.108-17.31,5.145-14.572-6.658-6.264-19.992-5.689-20.836.481.388.831.719,1.094.919,4.113,3.482,7.133-4.914,7.133-4.914l14.71,8.121s-6.283,5.745-1.5,9.977A15.189,15.189,0,0,1,1221.774,571.566Z" transform="translate(-1054.131 -503.413)" fill="#fcd2b1"/>
              <path id="パス_111" data-name="パス 111" d="M1182.3,605.559s-13.015,30.094-18.085,50.592c-36.252,8.758-59.976-8.046-70.8-18.76a54.645,54.645,0,0,1-6.82-7.814s9.8-17.7,15.6-30.863c5.864-13.184,14.76-30.325,21.224-41.959.35-1.857-11.634-6.614-17.617-19.592,8.177-3.32,21.217-16.573,21.217-16.573l30.782,23.549s-7.489,12.246,2.138,18.748c9.608,6.539,15.916.819,20.855-3.051,3.907,5.345,24.6,23.912,37.24,32.626l-16.279,27.287S1187.422,611.529,1182.3,605.559Z" transform="translate(-1013.158 -491.683)" fill="#2a94f4"/>
              <g id="グループ_101" data-name="グループ 101" transform="translate(147.478)">
                <g id="グループ_98" data-name="グループ 98" transform="translate(2.796 10.623)">
                  <path id="パス_112" data-name="パス 112" d="M1221.811,491.435a6.476,6.476,0,0,0-5.845,2.019c-1.438,1.6-5.145,6.233-5.933,7.914a8.828,8.828,0,0,0-.194,5.457c.413,2.088,1.1,4.338,2.882,5.507a6.106,6.106,0,0,0,4.451.669,7.654,7.654,0,0,0,3.038-1.231,12.207,12.207,0,0,0,2.538-2.744q3.957-5.27,7.914-10.534a3.167,3.167,0,0,0,.913-2.432" transform="translate(-1209.505 -491.342)" fill="#0b4870"/>
                </g>
                <g id="グループ_99" data-name="グループ 99" transform="translate(0 5.804)">
                  <path id="パス_113" data-name="パス 113" d="M1239.832,528.948a63.62,63.62,0,0,1-6.67,5.77c-3.507,2.632-7.189,3.188-11.14,1.163-4.42-2.269-9.233-4.557-13.09-7.908-4.282-3.719-4.876-7.164-2.569-12.328,1.432-3.194,2.807-6.414,4.307-9.583a158.83,158.83,0,0,1,10.728-19.536c.95-1.444,2.063-3.57,4.138-2.682a115.548,115.548,0,0,1,18.717,10.127c4.176,2.788,8.364,6.108,10.1,10.815,1.744,4.739.688,10-.394,14.935-.175.794-.544,1.763-1.35,1.807" transform="translate(-1205.032 -483.634)" fill="#ffe3ca"/>
                </g>
                <g id="グループ_100" data-name="グループ 100" transform="translate(10.275)">
                  <path id="パス_114" data-name="パス 114" d="M1245.356,514.89c1.244-1.213,3.532.075,3.87,1.776s-.563,3.382-1.425,4.889a11.542,11.542,0,0,1-5.076,4.107c-1.938.95-3.932.944-4.451-1.15-1.788,2.6-.988,6.1.8,7.383s22.192-2.332,26.337-7.858a28.3,28.3,0,0,0,5.132-16.254c-.043-2.951-2.044-15.066-3.7-18.167a28.436,28.436,0,0,0-6.108-7.633c-1.576-1.488-8.039-5.645-18.711-7.5-3.182-.556-19.042.431-20.442,5.5s10.64,17.029,13.691,18.96,6.114,11.953,9.183,13.1c0,0-2.894,4.088-1.688,4.288C1243.994,516.54,1245.356,514.89,1245.356,514.89Z" transform="translate(-1221.469 -474.349)" fill="#0b4870"/>
                </g>
              </g>
            </g>
          </g>
        </g>
        <g id="グループ_107" data-name="グループ 107" transform="translate(0 39.965)">
          <g id="グループ_106" data-name="グループ 106">
            <path id="パス_115" data-name="パス 115" d="M726.047,492.918s-1.732-15.9,3.344-23.049c6.62-9.333,25.049-11.678,33.739-6.364,9.621,5.883,17.135,20.817,13.547,33.751,14.366,4.363,17.573,20.817,7.364,24.874l8.4,18.717c5.226,11.634-.5,25.374-12.972,31.151l-22.349,10.346s-41.059,5.826-48.88-13.265,8.252-32.695,8.252-32.695-12.765-14.566-6.364-28.519S726.047,492.918,726.047,492.918Z" transform="translate(-626.513 -460.711)" fill="#0b4870"/>
            <path id="パス_116" data-name="パス 116" d="M850.595,546.825s37.677-7.108,47.523-9.371c7.858-1,12.8-45.929,13.447-48.748,5.482-5.045,6.051-10.665,5.414-13.584s-.088-12.028-.575-10.409c.594-4.145-10.44-3.357-11.54,7.652-1.094,10.865-1.119,9.115-1.175,12.878-3.163,10.315-11.746,34.6-11.99,38.083-16.448,2.638-45.4,7.52-45.4,7.52Z" transform="translate(-679.07 -461.344)" fill="#fcd2b1"/>
            <path id="パス_117" data-name="パス 117" d="M687.958,593.672s-29.044,23.749-37.452,28.925c-6.083,4.688-44.078-23.905-46.7-25.412-7.627.263-10.809-2.432-12.653-4.888s-13.284-11.971-11.7-11.184c-3.626-2.463,8.4-5.883,17.723.981,9.2,6.77,7.852,5.539,10.827,8.108,10.165,4.97,34.876,15.9,37.758,18.148,13.147-9.433,31.695-30.125,31.695-30.125Z" transform="translate(-578.791 -504.697)" fill="#fcd2b1"/>
            <path id="パス_118" data-name="パス 118" d="M824.33,1011.625a59.406,59.406,0,0,1,1.531,12.459c-.763,3.832.006,4.964.006,4.964l15.766-1.238s-6.97-3.157-6.483-18.154S824.33,1011.625,824.33,1011.625Z" transform="translate(-670.835 -664.168)" fill="#fcd2b1"/>
            <path id="パス_119" data-name="パス 119" d="M824.6,1038.294s6.852,2.344,13.628.575a68.477,68.477,0,0,0,20.817,5.576c7.245.844,5.958,6.345-6.42,5.583a166.7,166.7,0,0,0-23.768.019c-2.751.256-7.152.594-7.333-1.182S822.372,1037.707,824.6,1038.294Z" transform="translate(-669.776 -677.215)" fill="#0b4870"/>
            <path id="パス_120" data-name="パス 120" d="M815.468,701.372s10.146,91.226,10.746,103.1.6,16.01,0,23.236,4.589,68.14,4.589,68.14-23.611,5.289-29.625.588c0,0,.982-66.415-2.025-77.773s-14.772-68.928-14.772-68.928l13.559-58.869Z" transform="translate(-655.859 -546.989)" fill="#0e538c"/>
            <path id="パス_121" data-name="パス 121" d="M748.885,795.606s-1.838,19.354-5.7,22.949c-2.413,5.814-2.413,5.814,1.363,8.133,5.751,3.526,17.366,10.315,20.255,7.452,10.815-10.74,11.215-14.522,13.778-28.413.857-3.182,15.928-95.115,15.928-95.115s-47.967-6.677-48.148,6.451S751.292,780.309,748.885,795.606Z" transform="translate(-639.793 -553.753)" fill="#0e538c"/>
            <g id="グループ_105" data-name="グループ 105" transform="translate(27.727 323.654)">
              <path id="パス_122" data-name="パス 122" d="M650.348,978.641a67.213,67.213,0,0,1-9.808,8.683c-3.763,1.769-4.27,3.013-4.27,3.013l10.634,10.8s-1.507-7.026,11.715-15.766S650.348,978.641,650.348,978.641Z" transform="translate(-628.065 -978.442)" fill="#fcd2b1"/>
              <path id="パス_123" data-name="パス 123" d="M634.494,993.259a22.658,22.658,0,0,0,7.77,10.34,56.571,56.571,0,0,0,7.827,18.642c3.663,5.826-1.85,8.221-8.708-1.319a144.611,144.611,0,0,0-14.435-17.41c-1.888-1.863-4.851-4.882-3.432-6.1S633.65,991.265,634.494,993.259Z" transform="translate(-623.145 -983.821)" fill="#0b4870"/>
            </g>
            <path id="パス_124" data-name="パス 124" d="M707.211,878.468c-20.923,26.112-56.337,45.76-66.34,61.145-1.788,4.839,21.411,17.21,21.411,17.21s48.254-43.7,58.138-53.306c3.838-3.726,7.7-6.714,10.646-10.671C721.683,889.764,713.062,871.16,707.211,878.468Z" transform="translate(-602.026 -616.68)" fill="#0e538c"/>
            <path id="パス_125" data-name="パス 125" d="M789.911,594.968c-1.413,3.3,9.358,49.1,11.171,59.644,0,0-.219-.044-.663-.125-4.682-.694-33.332-4.476-56.462,5.17l-2.119-64.7-.088-2.4s0-2.444.219-6.189v-.044c.531-7.7,2.119-20.686,7.064-29.031,2.563-4.313,5.958-7.408,10.6-7.858,14.391-1.425,14.3,4.476,27.681,7.777l21.674,5.376s2.488,16.679,4.92,21.692l-19.973.131C793.924,584.428,791.323,591.63,789.911,594.968Z" transform="translate(-639.878 -493.89)" fill="#ffbe55"/>
            <path id="パス_126" data-name="パス 126" d="M787.369,478.64s18.585,24.587,11.665,34.258c-5.189,7.252-14.253,7.452-14.253,7.452V530.77a4.992,4.992,0,0,1-2.857,1.019c-3.157.169-11.584-4.9-11.584-4.9V485.829Z" transform="translate(-650.596 -467.432)" fill="#ffe3ca"/>
            <path id="パス_127" data-name="パス 127" d="M710.74,580.882s18.567-24.156,30.082-23.305,10.827,16.36,0,27.187-14.441,14.978-14.441,14.978S713.147,593.641,710.74,580.882Z" transform="translate(-628.254 -497.014)" fill="#ffbe55"/>
            <path id="パス_128" data-name="パス 128" d="M772.988,476.41s-3.163,16.522-11.653,23.686,1.663,17.36-5.407,28.475c-2.088,3.288-6.264,3.82-9.583,3.645-4.776-.256-9.665,1.919-12,5.889a7.14,7.14,0,0,0-.563,1.169c-13.841-5.032,5.914-56.131,5.914-56.131Z" transform="translate(-635.046 -466.596)" fill="#0b4870"/>
          </g>
        </g>
      </g>
      <g id="Poopsicle" transform="translate(14.22 69.099)">
        <ellipse id="楕円形_4" data-name="楕円形 4" cx="260.045" cy="16.291" rx="260.045" ry="16.291" transform="translate(0 573.47)" fill="#2a94f4" opacity="0.1"/>
        <g id="グループ_114" data-name="グループ 114" transform="translate(181.397 0)">
          <rect id="長方形_16" data-name="長方形 16" width="33.082" height="140.731" transform="translate(49.284 37.824) rotate(-18.754)" fill="#0b4870"/>
          <g id="グループ_110" data-name="グループ 110" transform="translate(70.928)">
            <g id="グループ_108" data-name="グループ 108" transform="translate(33.9 61.569)">
              <path id="パス_129" data-name="パス 129" d="M1041.538,359.991h0a13.584,13.584,0,0,0,8.5-17.235L1007.755,218.24a13.584,13.584,0,0,0-17.235-8.5h0a13.584,13.584,0,0,0-8.5,17.235L1024.3,351.495A13.594,13.594,0,0,0,1041.538,359.991Z" transform="translate(-981.299 -209.019)" fill="#ffc883"/>
              <path id="パス_130" data-name="パス 130" d="M1041.538,359.991h0a13.584,13.584,0,0,0,8.5-17.235L1007.755,218.24a13.584,13.584,0,0,0-17.235-8.5h0a13.584,13.584,0,0,0-8.5,17.235L1024.3,351.495A13.594,13.594,0,0,0,1041.538,359.991Z" transform="translate(-981.299 -209.019)" fill="#ffbe55"/>
            </g>
            <g id="グループ_109" data-name="グループ 109">
              <path id="パス_131" data-name="パス 131" d="M1025.917,265.333l-43.6,14.8a4.064,4.064,0,0,1-5.157-2.544L927.289,130.71a4.064,4.064,0,0,1,2.544-5.157l43.6-14.8a4.064,4.064,0,0,1,5.157,2.544l49.874,146.882A4.066,4.066,0,0,1,1025.917,265.333Z" transform="translate(-927.071 -110.531)" fill="#0e538c"/>
            </g>
          </g>
          <g id="グループ_113" data-name="グループ 113" transform="translate(0 24.08)">
            <g id="グループ_111" data-name="グループ 111" transform="translate(33.9 61.575)">
              <path id="パス_132" data-name="パス 132" d="M928.084,398.514h0a13.584,13.584,0,0,0,8.5-17.235L894.3,256.771a13.584,13.584,0,0,0-17.235-8.5h0a13.584,13.584,0,0,0-8.5,17.235l42.278,124.515A13.6,13.6,0,0,0,928.084,398.514Z" transform="translate(-867.839 -247.549)" fill="#ffc883"/>
              <path id="パス_133" data-name="パス 133" d="M928.084,398.514h0a13.584,13.584,0,0,0,8.5-17.235L894.3,256.771a13.584,13.584,0,0,0-17.235-8.5h0a13.584,13.584,0,0,0-8.5,17.235l42.278,124.515A13.6,13.6,0,0,0,928.084,398.514Z" transform="translate(-867.839 -247.549)" fill="#ffbe55"/>
            </g>
            <g id="グループ_112" data-name="グループ 112">
              <path id="パス_134" data-name="パス 134" d="M912.457,303.853l-43.6,14.8a4.064,4.064,0,0,1-5.157-2.544L813.829,169.23a4.064,4.064,0,0,1,2.544-5.157l43.6-14.8a4.064,4.064,0,0,1,5.157,2.544L915,298.7A4.059,4.059,0,0,1,912.457,303.853Z" transform="translate(-813.611 -149.051)" fill="#0e538c"/>
            </g>
          </g>
        </g>
      </g>
    </g>
  </g>
</svg>
